<svg xmlns="http://www.w3.org/2000/svg" aria-hidden="true" overflow="hidden" style="position:absolute;width:0;height:0"><defs>
<symbol id="icon-people" viewBox="0 0 32 32"><path d="M18.8 21.5c.3-.5.1-1.1-.3-1.4l-1.5-.9V17c0-.6-.4-1-1-1s-1 .4-1 1v2.2l-1.5.9c-.5.3-.6.9-.3 1.4s.9.6 1.4.3l1.4-.9h.2l1.4.9c0 .2.2.2.4.2.3 0 .7-.2.8-.5zM11 14h10c.3 0 .6-.1.8-.4.2-.2.3-.5.2-.8-.3-1.5-1.4-2.7-2.9-3.1-.4-.1-.7-.4-.8-.8.4-.5.7-1.2.7-1.9V5c0-1.7-1.3-3-3-3s-3 1.3-3 3v2c0 .7.3 1.4.7 1.9-.1.4-.4.7-.8.8-1.5.4-2.6 1.6-2.8 3.1-.1.3 0 .6.2.8.1.3.4.4.7.4zM27.1 25.7c-.4-.1-.7-.4-.8-.8.4-.5.7-1.2.7-1.9v-2c0-1.7-1.3-3-3-3s-3 1.3-3 3v2c0 .7.3 1.4.7 1.9-.1.4-.4.7-.8.8-1.5.4-2.6 1.6-2.8 3.1-.1.3 0 .6.2.8s.5.4.8.4h10c.3 0 .6-.1.8-.4.2-.2.3-.5.2-.8-.4-1.5-1.6-2.7-3-3.1zM11.1 25.7c-.4-.1-.7-.4-.8-.8.4-.5.7-1.2.7-1.9v-2c0-1.7-1.3-3-3-3s-3 1.3-3 3v2c0 .7.3 1.4.7 1.9-.1.4-.4.7-.8.8-1.5.4-2.6 1.6-2.8 3.1-.1.3 0 .6.2.8.1.3.4.4.7.4h10c.3 0 .6-.1.8-.4.2-.2.3-.5.2-.8-.3-1.5-1.5-2.7-2.9-3.1z"/>
</symbol>
<symbol id="icon-decision-making" viewBox="0 0 32 32"><path d="M13.406-.031c-2.154.477-3.498 1.789-4.031 3.938-.512.465-1.012.944-1.5 1.438-.217.33-.383.684-.5 1.063-.277 1.367.15 2.451 1.281 3.25.14.444.265.892.375 1.344a2.92 2.92 0 0 1-.406.594c-.148.405-.19.822-.125 1.25.307.909.942 1.326 1.906 1.25-.06 2.469.992 4.281 3.156 5.438.05.266.039.526-.031.781a170.844 170.844 0 0 0-3.813 2.188c-.247.448-.132.75.344.906a37.45 37.45 0 0 0 3.563-2c.22 1.054.856 1.689 1.906 1.906 1.441.121 2.347-.514 2.719-1.906 1.433.867 2.88 1.711 4.344 2.531 1.734 1.249 2.661 2.947 2.781 5.094l.063 2.688a.435.435 0 0 0 .219.25h.5c.084-.094.156-.199.219-.313.042-.958.042-1.917 0-2.875-.147-2.137-1.032-3.898-2.656-5.281a100.486 100.486 0 0 0-5.406-3.219 1.536 1.536 0 0 1 .031-.75 5.567 5.567 0 0 0 1.531-1.063c.123-.627-.116-.866-.719-.719-.891.841-1.954 1.268-3.188 1.281-2.505-.161-4.016-1.474-4.531-3.938-.052-1.75-.042-3.5.031-5.25a10.251 10.251 0 0 1 1.875-.438c.946.182 1.893.348 2.844.5.284-.006.565-.038.844-.094l1.25-.375a11.16 11.16 0 0 1 2.25.156c.01 1.833 0 3.667-.031 5.5a6.117 6.117 0 0 1-.375 1.313.526.526 0 0 0 .219.594c.297.09.537.017.719-.219a5.748 5.748 0 0 0 .469-2.688c.772.067 1.366-.224 1.781-.875.31-.826.174-1.566-.406-2.219.132-.56.288-1.112.469-1.656.291-.187.541-.416.75-.688.754-1.32.598-2.518-.469-3.594-.432-.273-.86-.555-1.281-.844-.787-2.109-2.318-3.14-4.594-3.094A13.583 13.583 0 0 0 14.97-.032h-1.563zm.125 1a6.276 6.276 0 0 1 1.813.156 45.47 45.47 0 0 1 2.063.938c1.224-.062 2.297.303 3.219 1.094a4.47 4.47 0 0 1 .938 1.75c.474.346.963.669 1.469.969.78.891.738 1.745-.125 2.563a1.647 1.647 0 0 1-.969.281 108 108 0 0 0-3.156-.313 5.026 5.026 0 0 0-1.938.406 5.865 5.865 0 0 1-.688.094 43.175 43.175 0 0 1-2.25-.469 5.027 5.027 0 0 0-1.438.063c-.601.176-1.206.343-1.813.5-1.256.16-2.037-.371-2.344-1.594a2.118 2.118 0 0 1 .25-1.25 30.868 30.868 0 0 1 1.688-1.625c.331-1.904 1.425-3.091 3.281-3.563zm8 8.75h.625a5.068 5.068 0 0 1-.219.938.76.76 0 0 1-.406.063v-1zm-11.687.312a.977.977 0 0 0 .531 0c.031.228.042.457.031.688a.759.759 0 0 1-.406-.063 3.402 3.402 0 0 1-.156-.625zm.062 1.688h.5v1.375c-.676.043-.978-.27-.906-.938.106-.179.241-.324.406-.438zm11.625 0c.762-.019 1.044.335.844 1.063-.214.276-.496.38-.844.313V11.72zm-6.937 8.187a7.107 7.107 0 0 0 2.625 0 3.332 3.332 0 0 1-.156 1.813c-.75.833-1.5.833-2.25 0a1.392 1.392 0 0 1-.125-.313 7.038 7.038 0 0 1-.094-1.5zM3.094 6.844C4.776 6.649 6.078 7.253 7 8.657c.712 1.48.608 2.897-.313 4.25-1.275 1.363-2.785 1.707-4.531 1.031C.261 12.823-.353 11.209.312 9.094c.106-.42.366-.618.781-.594a.62.62 0 0 1 .375.469c-.747 1.443-.518 2.703.688 3.781 1.362.819 2.601.663 3.719-.469.923-1.433.767-2.735-.469-3.906a2.616 2.616 0 0 0-1.625-.531c-.525.068-1.046.141-1.563.219-.236-.185-.309-.424-.219-.719a.882.882 0 0 1 .406-.281c.24-.065.469-.138.688-.219z"/><path d="M27.531 6.844c-1.28.268-2.207.997-2.781 2.188-.459 1.258-.355 2.467.313 3.625 1.259 1.562 2.832 1.989 4.719 1.281 1.895-1.114 2.509-2.729 1.844-4.844-.847-1.669-2.212-2.419-4.094-2.25zm.125 1c1.74-.102 2.813.689 3.219 2.375.043 1.645-.738 2.655-2.344 3.031-1.17.077-2.076-.371-2.719-1.344-.673-1.464-.371-2.683.906-3.656.304-.173.617-.309.938-.406z"/><path d="M26.906 9.094c.189-.01.376 0 .563.031.22.23.449.449.688.656.242-.211.471-.43.688-.656.538-.107.778.111.719.656-.217.279-.456.54-.719.781l.719.844c.047.597-.214.795-.781.594l-.656-.656a6.37 6.37 0 0 1-.781.719c-.601.001-.778-.28-.531-.844a8.54 8.54 0 0 0 .594-.625 3.743 3.743 0 0 0-.656-.75.783.783 0 0 1 .156-.75zM4.906 9.406c.628-.05.846.221.656.813l-1.906 1.906a.678.678 0 0 1-.688 0 5.245 5.245 0 0 1-.656-.719c-.12-.429.037-.658.469-.688.21.038.398.111.563.219a52.298 52.298 0 0 1 1.563-1.531zM3.531 14.844a25.918 25.918 0 0 0-2.406 2.375.862.862 0 0 0 .156.781c.339.138.694.19 1.063.156-.005.275.027.546.094.813.501 1.564 1.532 2.616 3.094 3.156.819.035 1.08-.33.781-1.094a5.059 5.059 0 0 1-1.156-2.875c.23.01.459 0 .688-.031.458-.136.615-.438.469-.906A54.317 54.317 0 0 0 4.158 15a.94.94 0 0 0-.625-.156zm.125 1.187a9.78 9.78 0 0 1 1.188 1.094c-.609-.004-.838.298-.688.906.002.336.033.67.094 1 .132.541.298 1.061.5 1.563a3.326 3.326 0 0 1-1.375-2.063 8.16 8.16 0 0 0-.188-1.25 1.32 1.32 0 0 0-.594-.156c.367-.356.721-.721 1.063-1.094zM28.031 14.844a25.918 25.918 0 0 0-2.406 2.375.859.859 0 0 0 .156.781c.318.136.652.188 1 .156a5.066 5.066 0 0 1-1.156 2.875c-.295.606-.118.981.531 1.125a7.982 7.982 0 0 0 1.5-.656c1.202-.789 1.848-1.903 1.938-3.344.251.01.501 0 .75-.031.459-.136.615-.438.469-.906A54.317 54.317 0 0 0 28.657 15a.94.94 0 0 0-.625-.156zm.125 1.187a9.78 9.78 0 0 1 1.188 1.094 1.32 1.32 0 0 0-.594.156c-.094.41-.157.826-.188 1.25a3.325 3.325 0 0 1-1.375 2.063c.202-.501.368-1.022.5-1.563a4.406 4.406 0 0 0 0-1.75 1.32 1.32 0 0 0-.594-.156c.367-.356.721-.721 1.063-1.094zM6.219 31.969h-.5a1.752 1.752 0 0 1-.219-.313 34.27 34.27 0 0 1 0-2.938c.155-2.05.999-3.747 2.531-5.094.602-.148.842.092.719.719-1.367 1.212-2.117 2.733-2.25 4.563l-.063 2.813a.435.435 0 0 1-.219.25z"/>
</symbol>
<symbol id="icon-purpose" viewBox="0 0 32 32"><path d="M28.656-.031a84.55 84.55 0 0 0-2.406 1.625.804.804 0 0 0-.156.531c.051.512.114 1.023.188 1.531-.471.397-.971.761-1.5 1.094a.156.156 0 0 1-.188 0 2.65 2.65 0 0 0-2.125-.688c-1.44.264-2.211 1.129-2.313 2.594.221 1.85 1.263 2.715 3.125 2.594 1.791-.562 2.437-1.749 1.938-3.563l1.594-1.094c.505.289 1.016.57 1.531.844.167.042.333.042.5 0a39.892 39.892 0 0 0 2.25-1.438c.376-.304.448-.669.219-1.094a27.5 27.5 0 0 0-1.5-.938 43.249 43.249 0 0 0-.188-1.563.734.734 0 0 0-.344-.438h-.625zm0 1.187c.097.298.128.611.094.938-.489.349-.989.682-1.5 1a1.79 1.79 0 0 1-.031-.938c.494-.319.973-.653 1.438-1zm.625 1.813c.314.084.606.22.875.406l-1.563 1.031c-.27-.114-.52-.26-.75-.438.482-.337.961-.67 1.438-1zm-6.687 2.062c.431-.008.827.107 1.188.344a50.06 50.06 0 0 0-1.406.969c-.191.601.028.862.656.781.432-.274.86-.555 1.281-.844.195 1.016-.212 1.672-1.219 1.969-1.108.06-1.754-.461-1.938-1.563.116-.876.595-1.428 1.438-1.656z"/><path d="M22.031.031a7.782 7.782 0 0 1 3.125.406c.378.18.471.462.281.844-.124.088-.259.15-.406.188-2.563-.912-4.761-.371-6.594 1.625-1.282 1.664-1.595 3.497-.938 5.5.042.167.042.333 0 .5a25.54 25.54 0 0 1-1.156 1.719c.808-.061 1.62-.102 2.438-.125 1.755 1.563 3.755 1.98 6 1.25 2.31-1.024 3.55-2.806 3.719-5.344.087-.179.233-.262.438-.25.305.024.483.191.531.5-.208 2.801-1.583 4.79-4.125 5.969-2.478.921-4.749.566-6.813-1.063a21.173 21.173 0 0 0-2.375.094c-.812.033-1.135-.342-.969-1.125.444-.659.871-1.325 1.281-2-.83-3.287.15-5.881 2.938-7.781a7.881 7.881 0 0 1 2.625-.906z"/><path d="M22.781 1.906a5.081 5.081 0 0 1 2.375.656c.247.445.132.747-.344.906-1.545-.766-3.014-.652-4.406.344-1.471 1.45-1.711 3.085-.719 4.906.89 1.2 2.088 1.773 3.594 1.719.357.363.315.676-.125.938-1.9.097-3.369-.643-4.406-2.219-1.18-2.351-.815-4.424 1.094-6.219a5.333 5.333 0 0 1 2.938-1.031zM26.844 5.781c.318-.047.537.078.656.375.129 1.981-.631 3.513-2.281 4.594-.581.143-.82-.076-.719-.656.2-.241.44-.439.719-.594.975-.945 1.423-2.101 1.344-3.469.087-.098.181-.181.281-.25zM9.656 5.969c2.36-.231 4.287.561 5.781 2.375.113.421-.044.671-.469.75a4.11 4.11 0 0 1-.375-.156c-1.541-1.812-3.458-2.375-5.75-1.688A96.787 96.787 0 0 1 5.78 8.5l-.688.563c-.507.117-.747-.081-.719-.594.263-.367.586-.669.969-.906a98.767 98.767 0 0 0 3.063-1.25c.419-.135.836-.25 1.25-.344zM1.219 31.969a.435.435 0 0 0 .219-.25c.015-.876.056-1.751.125-2.625.328-1.856 1.297-3.262 2.906-4.219a224.9 224.9 0 0 1 3.219-1.531c.23.563.595 1.011 1.094 1.344 1.612.673 2.799.225 3.563-1.344l2.938 1.406a.777.777 0 0 0 .438 0c.352-.242.393-.534.125-.875a123.59 123.59 0 0 0-3.375-1.594 2.691 2.691 0 0 1-.031-1c1.348-.838 2.129-2.047 2.344-3.625 1.475-.183 2.037-.995 1.688-2.438.087-.707.139-1.416.156-2.125-.218-.409-.51-.471-.875-.188-.128.49-.201.99-.219 1.5a4.705 4.705 0 0 0-.75-.063c.01-.48 0-.959-.031-1.438-.094-.427-.354-.688-.781-.781l-2.875-.063a7.096 7.096 0 0 1-3.563-1.5c-.424-.234-.809-.182-1.156.156a5.4 5.4 0 0 0-.906 3.625c-.252 0-.502.021-.75.063a129.03 129.03 0 0 0-.344-2.625 16.296 16.296 0 0 1 0-1.563.44.44 0 0 0-.156-.219c-.333-.169-.593-.096-.781.219a6.745 6.745 0 0 0-.063 1.75 99.37 99.37 0 0 0 .469 3.219c-.424 1.472.128 2.295 1.656 2.469.161 1.469.849 2.615 2.063 3.438a3.79 3.79 0 0 1-.031 1.188l-3.813 1.844c-.572.396-1.103.844-1.594 1.344-1.536 1.947-2.005 4.113-1.406 6.5h.5zm5.812-20.438c2.038 1.375 4.288 1.896 6.75 1.563.01 1.5 0 3-.031 4.5-.309 1.767-1.34 2.84-3.094 3.219-2.147.123-3.512-.846-4.094-2.906a46.097 46.097 0 0 1-.063-4.688c.071-.598.248-1.16.531-1.688zm-1.875 3.813h.313v1.25c-.679-.047-.898-.381-.656-1 .113-.092.228-.176.344-.25zm9.625 0c.453-.026.724.182.813.625-.096.433-.367.642-.813.625v-1.25zm-6.187 6.25a5.553 5.553 0 0 0 2.813.125c.01.396 0 .792-.031 1.188-.322.927-.958 1.25-1.906.969a1.43 1.43 0 0 1-.844-1.094c-.031-.395-.042-.791-.031-1.188zM19.281 31.969h-.5a1.702 1.702 0 0 1-.219-.313l-.063-2.313a6.212 6.212 0 0 0-1.813-3.688c-.033-.633.248-.831.844-.594 1.837 2.004 2.42 4.306 1.75 6.906z"/><path d="M4.781 31.969h-.5a1.752 1.752 0 0 1-.219-.313 21.246 21.246 0 0 1 0-2.313c.259-.439.571-.481.938-.125.042.833.042 1.667 0 2.5a.435.435 0 0 1-.219.25zM15.719 31.969h-.5a1.702 1.702 0 0 1-.219-.313 21.246 21.246 0 0 1 0-2.313c.259-.439.571-.481.938-.125.042.833.042 1.667 0 2.5a.435.435 0 0 1-.219.25z"/>
</symbol>
<symbol id="icon-puzzle" viewBox="0 0 32 32"><path d="M2.219-.031C1.031.282.281 1.032-.031 2.219v22.938c.349 1.172 1.12 1.911 2.313 2.219 3.792.042 7.583.042 11.375 0a.665.665 0 0 0 .469-.469c.042-1.833.042-3.667 0-5.5a1.272 1.272 0 0 0-.406-.531 2.298 2.298 0 0 0-1.188-.125.693.693 0 0 0-.375.313.612.612 0 0 1-.438.125c-.35-.168-.538-.449-.563-.844.027-.579.318-.861.875-.844.223.341.536.476.938.406.465.043.83-.123 1.094-.5a75.9 75.9 0 0 0 .094-5.25h4.688a.81.81 0 0 1-.031.313c-.57.652-.612 1.34-.125 2.063.856.791 1.783.884 2.781.281.745-.719.818-1.501.219-2.344-.031-.102-.041-.206-.031-.313 1.771.01 3.542 0 5.313-.031a.655.655 0 0 0 .406-.406 513.47 513.47 0 0 0 0-11.375C27.091 1.09 26.33.298 25.096-.03H2.221zm.187 1h10.75a77.754 77.754 0 0 0 .094 5.313c.249.384.603.53 1.063.438l.594-.031c.672-.635 1.109-.489 1.313.438-.029.456-.258.758-.688.906a1.833 1.833 0 0 0-.25-.094c-.223-.341-.536-.476-.938-.406-.595-.11-.981.119-1.156.688-.031 1.646-.042 3.292-.031 4.938a4.598 4.598 0 0 0-1.188.094c-.315.288-.315.58 0 .875.395.031.791.042 1.188.031v4.75a.532.532 0 0 1-.25-.031c-.604-.463-1.25-.526-1.938-.188-.813.72-1.011 1.584-.594 2.594.483.828 1.181 1.088 2.094.781.157-.089.303-.193.438-.313.081-.031.164-.041.25-.031v4.688c-3.583.01-7.167 0-10.75-.031-.908-.283-1.397-.897-1.469-1.844a854.31 854.31 0 0 1-.031-10.375c1.688.01 3.375 0 5.063-.031a.994.994 0 0 0 .656-.844c.115-.479-.01-.874-.375-1.188-.153-.413-.018-.694.406-.844.518-.189.924-.053 1.219.406a.405.405 0 0 1 0 .313 1.91 1.91 0 0 1-.375.438c-.042.375-.042.75 0 1.125.115.281.313.479.594.594a22.4 22.4 0 0 0 2.375 0 .291.291 0 0 0 .219-.219c.14-.406.005-.645-.406-.719-.604-.031-1.208-.042-1.813-.031a.454.454 0 0 1 .219-.5c.47-1.152.126-1.954-1.031-2.406-1.077-.274-1.879.07-2.406 1.031-.19.617-.065 1.158.375 1.625.031.081.041.164.031.25H.908c-.01-3.438 0-6.875.031-10.313.086-.95.576-1.575 1.469-1.875zm11.75 0c3.604-.01 7.208 0 10.813.031.745.224 1.213.713 1.406 1.469.031 3.562.042 7.125.031 10.688a78.424 78.424 0 0 0-5.313.094c-.399.228-.545.572-.438 1.031l.031.625c.633.695.477 1.133-.469 1.313-.398-.026-.68-.214-.844-.563a.415.415 0 0 1 .063-.375c.314-.231.449-.544.406-.938.087-.651-.184-1.037-.813-1.156-1.625-.031-3.25-.042-4.875-.031V8.532a.81.81 0 0 1 .313.031c.885.673 1.687.58 2.406-.281.536-1.009.4-1.915-.406-2.719-.694-.405-1.361-.363-2 .125-.102.031-.206.041-.313.031V.969z"/><path d="M31.969 18.031v11.688a4.044 4.044 0 0 1-.781 1.438 3.938 3.938 0 0 1-1.469.813H18.281a1.094 1.094 0 0 1-.469-.5l-.063-5.125c-.199-.098-.356-.046-.469.156-1.189.534-2.012.191-2.469-1.031-.212-.948.069-1.709.844-2.281.657-.27 1.261-.187 1.813.25.102.031.206.041.313.031-.01-.625 0-1.25.031-1.875.163-.232.381-.305.656-.219a.507.507 0 0 1 .281.344 14.92 14.92 0 0 1 0 1.938c-.161.612-.557.883-1.188.813l-.531-.031c-.687-.637-1.125-.481-1.313.469.03.393.218.674.563.844.133.04.258.019.375-.063a.878.878 0 0 1 .875-.406c.643-.033 1.05.259 1.219.875.031 1.604.042 3.208.031 4.813 3.583.01 7.167 0 10.75-.031.905-.28 1.395-.895 1.469-1.844.031-3.437.042-6.875.031-10.313h-4.813a.532.532 0 0 0 .031.25c.463.604.526 1.25.188 1.938-.799.887-1.726 1.044-2.781.469-.615-.448-.834-1.042-.656-1.781a1.48 1.48 0 0 1 .375-.625c.031-.081.041-.164.031-.25H18.78c.01.396 0 .792-.031 1.188-.25.448-.562.489-.938.125a16.905 16.905 0 0 1 0-2.063l.219-.219c1.958-.042 3.917-.042 5.875 0 .401.24.568.594.5 1.063l-.031.531a2.097 2.097 0 0 0-.469.719c.31.624.789.791 1.438.5.285-.165.379-.404.281-.719a3.048 3.048 0 0 1-.375-.438 3.81 3.81 0 0 1 .063-1.313.997.997 0 0 1 .406-.344c2-.042 4-.042 6 0a.435.435 0 0 1 .25.219z"/>
</symbol>
<symbol id="icon-user" viewBox="0 0 32 32"><path d="M18 22.082v-1.649c2.203-1.241 4-4.337 4-7.432 0-4.971 0-9-6-9s-6 4.029-6 9c0 3.096 1.797 6.191 4 7.432v1.649C7.216 22.637 2 25.97 2 30h28c0-4.03-5.216-7.364-12-7.918z"/>
</symbol>
<symbol id="icon-users" viewBox="0 0 36 32"><path d="M24 24.082v-1.649c2.203-1.241 4-4.337 4-7.432 0-4.971 0-9-6-9s-6 4.029-6 9c0 3.096 1.797 6.191 4 7.432v1.649C13.216 24.637 8 27.97 8 32h28c0-4.03-5.216-7.364-12-7.918z"/><path d="M10.225 24.854c1.728-1.13 3.877-1.989 6.243-2.513a11.33 11.33 0 0 1-1.265-1.844c-.95-1.726-1.453-3.627-1.453-5.497 0-2.689 0-5.228.956-7.305.928-2.016 2.598-3.265 4.976-3.734C19.153 1.571 17.746 0 14 0 8 0 8 4.029 8 9c0 3.096 1.797 6.191 4 7.432v1.649c-6.784.555-12 3.888-12 7.918h8.719c.454-.403.956-.787 1.506-1.146z"/>
</symbol>
</defs>
</svg>