<svg aria-hidden="true" style="position: absolute; width: 0; height: 0; overflow: hidden;" version="1.1" xmlns="http://www.w3.org/2000/svg" xmlns:xlink="http://www.w3.org/1999/xlink">
<defs>

<!-- <symbol id="icon-making" viewBox="0 0 32 32">
<path d="M13.406-0.031c-2.154 0.477-3.498 1.789-4.031 3.938-0.512 0.465-1.012 0.944-1.5 1.438-0.217 0.33-0.383 0.684-0.5 1.063-0.277 1.367 0.15 2.451 1.281 3.25 0.14 0.444 0.265 0.892 0.375 1.344-0.11 0.214-0.246 0.412-0.406 0.594-0.148 0.405-0.19 0.822-0.125 1.25 0.307 0.909 0.942 1.326 1.906 1.25-0.060 2.469 0.992 4.281 3.156 5.438 0.050 0.266 0.039 0.526-0.031 0.781-1.281 0.713-2.552 1.443-3.813 2.188-0.247 0.448-0.132 0.75 0.344 0.906 1.225-0.602 2.412-1.269 3.563-2 0.22 1.054 0.856 1.689 1.906 1.906 1.441 0.121 2.347-0.514 2.719-1.906 1.433 0.867 2.88 1.711 4.344 2.531 1.734 1.249 2.661 2.947 2.781 5.094 0.021 0.896 0.042 1.792 0.063 2.688 0.043 0.116 0.116 0.199 0.219 0.25 0.167 0 0.333 0 0.5 0 0.084-0.094 0.156-0.199 0.219-0.313 0.042-0.958 0.042-1.917 0-2.875-0.147-2.137-1.032-3.898-2.656-5.281-1.766-1.128-3.568-2.201-5.406-3.219-0.052-0.253-0.041-0.503 0.031-0.75 0.571-0.269 1.081-0.623 1.531-1.063 0.123-0.627-0.116-0.866-0.719-0.719-0.891 0.841-1.954 1.268-3.188 1.281-2.505-0.161-4.016-1.474-4.531-3.938-0.052-1.75-0.042-3.5 0.031-5.25 0.612-0.205 1.237-0.351 1.875-0.438 0.946 0.182 1.893 0.348 2.844 0.5 0.284-0.006 0.565-0.038 0.844-0.094 0.417-0.125 0.834-0.25 1.25-0.375 0.755-0.024 1.505 0.028 2.25 0.156 0.010 1.833 0 3.667-0.031 5.5-0.076 0.452-0.201 0.889-0.375 1.313-0.060 0.245 0.013 0.443 0.219 0.594 0.297 0.090 0.537 0.017 0.719-0.219 0.372-0.857 0.528-1.753 0.469-2.688 0.772 0.067 1.366-0.224 1.781-0.875 0.31-0.826 0.174-1.566-0.406-2.219 0.132-0.56 0.288-1.112 0.469-1.656 0.291-0.187 0.541-0.416 0.75-0.688 0.754-1.32 0.598-2.518-0.469-3.594-0.432-0.273-0.86-0.555-1.281-0.844-0.787-2.109-2.318-3.14-4.594-3.094-0.902-0.494-1.84-0.879-2.813-1.156-0.521 0-1.042 0-1.563 0zM13.531 0.969c0.613-0.036 1.217 0.016 1.813 0.156 0.695 0.295 1.382 0.608 2.063 0.938 1.224-0.062 2.297 0.303 3.219 1.094 0.442 0.51 0.755 1.093 0.938 1.75 0.474 0.346 0.963 0.669 1.469 0.969 0.78 0.891 0.738 1.745-0.125 2.563-0.294 0.195-0.617 0.289-0.969 0.281-1.051-0.12-2.103-0.224-3.156-0.313-0.673 0.007-1.319 0.142-1.938 0.406-0.227 0.045-0.456 0.076-0.688 0.094-0.754-0.136-1.504-0.293-2.25-0.469-0.482-0.048-0.961-0.027-1.438 0.063-0.601 0.176-1.206 0.343-1.813 0.5-1.256 0.16-2.037-0.371-2.344-1.594-0.045-0.442 0.038-0.858 0.25-1.25 0.54-0.561 1.103-1.103 1.688-1.625 0.331-1.904 1.425-3.091 3.281-3.563zM21.531 9.719c0.208 0 0.417 0 0.625 0-0.043 0.319-0.116 0.631-0.219 0.938-0.128 0.058-0.263 0.079-0.406 0.063 0-0.333 0-0.667 0-1zM9.844 10.031c0.182 0.049 0.359 0.049 0.531 0 0.031 0.228 0.042 0.457 0.031 0.688-0.143 0.016-0.279-0.005-0.406-0.063-0.072-0.204-0.124-0.413-0.156-0.625zM9.906 11.719c0.167 0 0.333 0 0.5 0 0 0.458 0 0.917 0 1.375-0.676 0.043-0.978-0.27-0.906-0.938 0.106-0.179 0.241-0.324 0.406-0.438zM21.531 11.719c0.762-0.019 1.044 0.335 0.844 1.063-0.214 0.276-0.496 0.38-0.844 0.313 0-0.458 0-0.917 0-1.375zM14.594 19.906c0.876 0.163 1.751 0.163 2.625 0 0.116 0.621 0.064 1.226-0.156 1.813-0.75 0.833-1.5 0.833-2.25 0-0.054-0.099-0.096-0.203-0.125-0.313-0.085-0.496-0.116-0.996-0.094-1.5z"></path>
<path d="M3.094 6.844c1.682-0.195 2.984 0.409 3.906 1.813 0.712 1.48 0.608 2.897-0.313 4.25-1.275 1.363-2.785 1.707-4.531 1.031-1.895-1.115-2.509-2.729-1.844-4.844 0.106-0.42 0.366-0.618 0.781-0.594 0.206 0.092 0.331 0.248 0.375 0.469-0.747 1.443-0.518 2.703 0.688 3.781 1.362 0.819 2.601 0.663 3.719-0.469 0.923-1.433 0.767-2.735-0.469-3.906-0.482-0.359-1.024-0.536-1.625-0.531-0.525 0.068-1.046 0.141-1.563 0.219-0.236-0.185-0.309-0.424-0.219-0.719 0.108-0.132 0.244-0.226 0.406-0.281 0.24-0.065 0.469-0.138 0.688-0.219z"></path>
<path d="M27.531 6.844c-1.28 0.268-2.207 0.997-2.781 2.188-0.459 1.258-0.355 2.467 0.313 3.625 1.259 1.562 2.832 1.989 4.719 1.281 1.895-1.114 2.509-2.729 1.844-4.844-0.847-1.669-2.212-2.419-4.094-2.25zM27.656 7.844c1.74-0.102 2.813 0.689 3.219 2.375 0.043 1.645-0.738 2.655-2.344 3.031-1.17 0.077-2.076-0.371-2.719-1.344-0.673-1.464-0.371-2.683 0.906-3.656 0.304-0.173 0.617-0.309 0.938-0.406z"></path>
<path d="M26.906 9.094c0.189-0.010 0.376 0 0.563 0.031 0.22 0.23 0.449 0.449 0.688 0.656 0.242-0.211 0.471-0.43 0.688-0.656 0.538-0.107 0.778 0.111 0.719 0.656-0.217 0.279-0.456 0.54-0.719 0.781 0.24 0.281 0.479 0.563 0.719 0.844 0.047 0.597-0.214 0.795-0.781 0.594-0.219-0.219-0.438-0.438-0.656-0.656-0.243 0.264-0.504 0.504-0.781 0.719-0.601 0.001-0.778-0.28-0.531-0.844 0.209-0.199 0.407-0.407 0.594-0.625-0.184-0.278-0.403-0.528-0.656-0.75-0.077-0.285-0.025-0.535 0.156-0.75z"></path>
<path d="M4.906 9.406c0.628-0.050 0.846 0.221 0.656 0.813-0.635 0.635-1.271 1.271-1.906 1.906-0.229 0.125-0.458 0.125-0.688 0-0.242-0.221-0.461-0.46-0.656-0.719-0.12-0.429 0.037-0.658 0.469-0.688 0.21 0.038 0.398 0.111 0.563 0.219 0.514-0.525 1.035-1.035 1.563-1.531z"></path>
<path d="M3.531 14.844c-0.85 0.736-1.652 1.527-2.406 2.375-0.075 0.291-0.022 0.551 0.156 0.781 0.339 0.138 0.694 0.19 1.063 0.156-0.005 0.275 0.027 0.546 0.094 0.813 0.501 1.564 1.532 2.616 3.094 3.156 0.819 0.035 1.080-0.33 0.781-1.094-0.685-0.834-1.070-1.793-1.156-2.875 0.23 0.010 0.459-0 0.688-0.031 0.458-0.136 0.615-0.438 0.469-0.906-0.696-0.759-1.415-1.498-2.156-2.219-0.19-0.125-0.398-0.178-0.625-0.156zM3.656 16.031c0.421 0.327 0.817 0.692 1.188 1.094-0.609-0.004-0.838 0.298-0.688 0.906 0.002 0.336 0.033 0.67 0.094 1 0.132 0.541 0.298 1.061 0.5 1.563-0.723-0.509-1.182-1.197-1.375-2.063-0.031-0.424-0.093-0.84-0.188-1.25-0.183-0.098-0.381-0.15-0.594-0.156 0.367-0.356 0.721-0.721 1.063-1.094z"></path>
<path d="M28.031 14.844c-0.85 0.736-1.652 1.527-2.406 2.375-0.075 0.291-0.023 0.551 0.156 0.781 0.318 0.136 0.652 0.188 1 0.156-0.086 1.082-0.472 2.041-1.156 2.875-0.295 0.606-0.118 0.981 0.531 1.125 0.52-0.166 1.020-0.385 1.5-0.656 1.202-0.789 1.848-1.903 1.938-3.344 0.251 0.010 0.501-0 0.75-0.031 0.459-0.136 0.615-0.438 0.469-0.906-0.696-0.759-1.415-1.498-2.156-2.219-0.19-0.125-0.398-0.178-0.625-0.156zM28.156 16.031c0.421 0.327 0.817 0.692 1.188 1.094-0.213 0.006-0.411 0.058-0.594 0.156-0.094 0.41-0.157 0.826-0.188 1.25-0.193 0.866-0.651 1.553-1.375 2.063 0.202-0.501 0.368-1.022 0.5-1.563 0.117-0.587 0.117-1.17 0-1.75-0.183-0.098-0.381-0.15-0.594-0.156 0.367-0.356 0.721-0.721 1.063-1.094z"></path>
<path d="M6.219 31.969c-0.167 0-0.333 0-0.5 0-0.083-0.094-0.156-0.199-0.219-0.313-0.042-0.979-0.042-1.958 0-2.938 0.155-2.050 0.999-3.747 2.531-5.094 0.602-0.148 0.842 0.092 0.719 0.719-1.367 1.212-2.117 2.733-2.25 4.563-0.021 0.938-0.042 1.875-0.063 2.813-0.043 0.116-0.116 0.199-0.219 0.25z"></path>
</symbol>

<symbol id="icon-purpose" viewBox="0 0 32 32">
<path d="M28.656-0.031c-0.808 0.526-1.61 1.067-2.406 1.625-0.115 0.159-0.167 0.336-0.156 0.531 0.051 0.512 0.114 1.023 0.188 1.531-0.471 0.397-0.971 0.761-1.5 1.094-0.063 0.042-0.125 0.042-0.188 0-0.605-0.542-1.313-0.771-2.125-0.688-1.44 0.264-2.211 1.129-2.313 2.594 0.221 1.85 1.263 2.715 3.125 2.594 1.791-0.562 2.437-1.749 1.938-3.563 0.531-0.365 1.063-0.729 1.594-1.094 0.505 0.289 1.016 0.57 1.531 0.844 0.167 0.042 0.333 0.042 0.5 0 0.767-0.455 1.517-0.934 2.25-1.438 0.376-0.304 0.448-0.669 0.219-1.094-0.489-0.328-0.989-0.641-1.5-0.938-0.053-0.522-0.116-1.043-0.188-1.563-0.060-0.195-0.175-0.341-0.344-0.438-0.208 0-0.417 0-0.625 0zM28.656 1.156c0.097 0.298 0.128 0.611 0.094 0.938-0.489 0.349-0.989 0.682-1.5 1-0.094-0.311-0.104-0.624-0.031-0.938 0.494-0.319 0.973-0.653 1.438-1zM29.281 2.969c0.314 0.084 0.606 0.22 0.875 0.406-0.521 0.344-1.042 0.688-1.563 1.031-0.27-0.114-0.52-0.26-0.75-0.438 0.482-0.337 0.961-0.67 1.438-1zM22.594 5.031c0.431-0.008 0.827 0.107 1.188 0.344-0.474 0.315-0.943 0.638-1.406 0.969-0.191 0.601 0.028 0.862 0.656 0.781 0.432-0.274 0.86-0.555 1.281-0.844 0.195 1.016-0.212 1.672-1.219 1.969-1.108 0.060-1.754-0.461-1.938-1.563 0.116-0.876 0.595-1.428 1.438-1.656z"></path>
<path d="M22.031 0.031c1.070-0.078 2.112 0.058 3.125 0.406 0.378 0.18 0.471 0.462 0.281 0.844-0.124 0.088-0.259 0.15-0.406 0.188-2.563-0.912-4.761-0.371-6.594 1.625-1.282 1.664-1.595 3.497-0.938 5.5 0.042 0.167 0.042 0.333 0 0.5-0.362 0.589-0.748 1.162-1.156 1.719 0.808-0.061 1.62-0.102 2.438-0.125 1.755 1.563 3.755 1.98 6 1.25 2.31-1.024 3.55-2.806 3.719-5.344 0.087-0.179 0.233-0.262 0.438-0.25 0.305 0.024 0.483 0.191 0.531 0.5-0.208 2.801-1.583 4.79-4.125 5.969-2.478 0.921-4.749 0.566-6.813-1.063-0.793-0.013-1.584 0.018-2.375 0.094-0.812 0.033-1.135-0.342-0.969-1.125 0.444-0.659 0.871-1.325 1.281-2-0.83-3.287 0.15-5.881 2.938-7.781 0.829-0.46 1.704-0.762 2.625-0.906z"></path>
<path d="M22.781 1.906c0.843 0.023 1.635 0.242 2.375 0.656 0.247 0.445 0.132 0.747-0.344 0.906-1.545-0.766-3.014-0.652-4.406 0.344-1.471 1.45-1.711 3.085-0.719 4.906 0.89 1.2 2.088 1.773 3.594 1.719 0.357 0.363 0.315 0.676-0.125 0.938-1.9 0.097-3.369-0.643-4.406-2.219-1.18-2.351-0.815-4.424 1.094-6.219 0.882-0.638 1.861-0.981 2.938-1.031z"></path>
<path d="M26.844 5.781c0.318-0.047 0.537 0.078 0.656 0.375 0.129 1.981-0.631 3.513-2.281 4.594-0.581 0.143-0.82-0.076-0.719-0.656 0.2-0.241 0.44-0.439 0.719-0.594 0.975-0.945 1.423-2.101 1.344-3.469 0.087-0.098 0.181-0.181 0.281-0.25z"></path>
<path d="M9.656 5.969c2.36-0.231 4.287 0.561 5.781 2.375 0.113 0.421-0.044 0.671-0.469 0.75-0.128-0.046-0.253-0.098-0.375-0.156-1.541-1.812-3.458-2.375-5.75-1.688-1.014 0.434-2.035 0.851-3.063 1.25-0.229 0.188-0.458 0.375-0.688 0.563-0.507 0.117-0.747-0.081-0.719-0.594 0.263-0.367 0.586-0.669 0.969-0.906 1.027-0.399 2.048-0.816 3.063-1.25 0.419-0.135 0.836-0.25 1.25-0.344z"></path>
<path d="M1.219 31.969c0.103-0.051 0.176-0.134 0.219-0.25 0.015-0.876 0.056-1.751 0.125-2.625 0.328-1.856 1.297-3.262 2.906-4.219 1.070-0.519 2.143-1.030 3.219-1.531 0.23 0.563 0.595 1.011 1.094 1.344 1.612 0.673 2.799 0.225 3.563-1.344 0.979 0.469 1.958 0.938 2.938 1.406 0.146 0.042 0.292 0.042 0.438 0 0.352-0.242 0.393-0.534 0.125-0.875-1.117-0.548-2.242-1.080-3.375-1.594-0.073-0.331-0.083-0.665-0.031-1 1.348-0.838 2.129-2.047 2.344-3.625 1.475-0.183 2.037-0.995 1.688-2.438 0.087-0.707 0.139-1.416 0.156-2.125-0.218-0.409-0.51-0.471-0.875-0.188-0.128 0.49-0.201 0.99-0.219 1.5-0.248-0.041-0.498-0.062-0.75-0.063 0.010-0.48 0-0.959-0.031-1.438-0.094-0.427-0.354-0.688-0.781-0.781-0.958-0.021-1.917-0.042-2.875-0.063-1.331-0.172-2.518-0.672-3.563-1.5-0.424-0.234-0.809-0.182-1.156 0.156-0.732 1.095-1.034 2.304-0.906 3.625-0.252 0-0.502 0.021-0.75 0.063-0.106-0.876-0.22-1.751-0.344-2.625-0.025-0.522-0.025-1.043 0-1.563-0.029-0.089-0.081-0.162-0.156-0.219-0.333-0.169-0.593-0.096-0.781 0.219-0.097 0.579-0.118 1.163-0.063 1.75 0.139 1.076 0.295 2.149 0.469 3.219-0.424 1.472 0.128 2.295 1.656 2.469 0.161 1.469 0.849 2.615 2.063 3.438 0.052 0.397 0.042 0.793-0.031 1.188-1.271 0.615-2.542 1.229-3.813 1.844-0.572 0.396-1.103 0.844-1.594 1.344-1.536 1.947-2.005 4.113-1.406 6.5 0.167 0 0.333 0 0.5 0zM7.031 11.531c2.038 1.375 4.288 1.896 6.75 1.563 0.010 1.5 0 3-0.031 4.5-0.309 1.767-1.34 2.84-3.094 3.219-2.147 0.123-3.512-0.846-4.094-2.906-0.101-1.56-0.121-3.123-0.063-4.688 0.071-0.598 0.248-1.16 0.531-1.688zM5.156 15.344c0.104 0 0.208 0 0.313 0 0 0.417 0 0.833 0 1.25-0.679-0.047-0.898-0.381-0.656-1 0.113-0.092 0.228-0.176 0.344-0.25zM14.781 15.344c0.453-0.026 0.724 0.182 0.813 0.625-0.096 0.433-0.367 0.642-0.813 0.625 0-0.417 0-0.833 0-1.25zM8.594 21.594c0.923 0.283 1.861 0.325 2.813 0.125 0.010 0.396 0 0.792-0.031 1.188-0.322 0.927-0.958 1.25-1.906 0.969-0.469-0.219-0.75-0.584-0.844-1.094-0.031-0.395-0.042-0.791-0.031-1.188z"></path>
<path d="M19.281 31.969c-0.167 0-0.333 0-0.5 0-0.084-0.094-0.156-0.199-0.219-0.313-0.021-0.771-0.042-1.542-0.063-2.313-0.188-1.439-0.792-2.668-1.813-3.688-0.033-0.633 0.248-0.831 0.844-0.594 1.837 2.004 2.42 4.306 1.75 6.906z"></path>
<path d="M4.781 31.969c-0.167 0-0.333 0-0.5 0-0.083-0.094-0.156-0.199-0.219-0.313-0.042-0.771-0.042-1.542 0-2.313 0.259-0.439 0.571-0.481 0.938-0.125 0.042 0.833 0.042 1.667 0 2.5-0.043 0.116-0.116 0.199-0.219 0.25z"></path>
<path d="M15.719 31.969c-0.167 0-0.333 0-0.5 0-0.084-0.094-0.156-0.199-0.219-0.313-0.042-0.771-0.042-1.542 0-2.313 0.259-0.439 0.571-0.481 0.938-0.125 0.042 0.833 0.042 1.667 0 2.5-0.043 0.116-0.116 0.199-0.219 0.25z"></path>
</symbol>

<symbol id="icon-puzzle" viewBox="0 0 32 32">
<path d="M2.219-0.031c-1.188 0.313-1.938 1.063-2.25 2.25 0 7.646 0 15.292 0 22.938 0.349 1.172 1.12 1.911 2.313 2.219 3.792 0.042 7.583 0.042 11.375 0 0.24-0.073 0.396-0.229 0.469-0.469 0.042-1.833 0.042-3.667 0-5.5-0.088-0.213-0.223-0.39-0.406-0.531-0.383-0.146-0.779-0.188-1.188-0.125-0.163 0.059-0.288 0.163-0.375 0.313-0.134 0.099-0.28 0.141-0.438 0.125-0.35-0.168-0.538-0.449-0.563-0.844 0.027-0.579 0.318-0.861 0.875-0.844 0.223 0.341 0.536 0.476 0.938 0.406 0.465 0.043 0.83-0.123 1.094-0.5 0.092-1.746 0.123-3.496 0.094-5.25 1.563 0 3.125 0 4.688 0 0.010 0.106-0 0.21-0.031 0.313-0.57 0.652-0.612 1.34-0.125 2.063 0.856 0.791 1.783 0.884 2.781 0.281 0.745-0.719 0.818-1.501 0.219-2.344-0.031-0.102-0.041-0.206-0.031-0.313 1.771 0.010 3.542 0 5.313-0.031 0.198-0.073 0.333-0.208 0.406-0.406 0.042-3.792 0.042-7.583 0-11.375-0.286-1.255-1.047-2.047-2.281-2.375-7.625 0-15.25 0-22.875 0zM2.406 0.969c3.583 0 7.167 0 10.75 0-0.029 1.774 0.002 3.545 0.094 5.313 0.249 0.384 0.603 0.53 1.063 0.438 0.198-0.010 0.396-0.021 0.594-0.031 0.672-0.635 1.109-0.489 1.313 0.438-0.029 0.456-0.258 0.758-0.688 0.906-0.081-0.037-0.164-0.069-0.25-0.094-0.223-0.341-0.536-0.476-0.938-0.406-0.595-0.11-0.981 0.119-1.156 0.688-0.031 1.646-0.042 3.292-0.031 4.938-0.401-0.020-0.796 0.011-1.188 0.094-0.315 0.288-0.315 0.58 0 0.875 0.395 0.031 0.791 0.042 1.188 0.031 0 1.583 0 3.167 0 4.75-0.086 0.010-0.169-0.001-0.25-0.031-0.604-0.463-1.25-0.526-1.938-0.188-0.813 0.72-1.011 1.584-0.594 2.594 0.483 0.828 1.181 1.088 2.094 0.781 0.157-0.089 0.303-0.193 0.438-0.313 0.081-0.031 0.164-0.041 0.25-0.031 0 1.563 0 3.125 0 4.688-3.583 0.010-7.167 0-10.75-0.031-0.908-0.283-1.397-0.897-1.469-1.844-0.031-3.458-0.042-6.917-0.031-10.375 1.688 0.010 3.375 0 5.063-0.031 0.382-0.153 0.601-0.434 0.656-0.844 0.115-0.479-0.010-0.874-0.375-1.188-0.153-0.413-0.018-0.694 0.406-0.844 0.518-0.189 0.924-0.053 1.219 0.406 0.042 0.104 0.042 0.208 0 0.313-0.102 0.164-0.227 0.31-0.375 0.438-0.042 0.375-0.042 0.75 0 1.125 0.115 0.281 0.313 0.479 0.594 0.594 0.792 0.042 1.583 0.042 2.375 0 0.115-0.031 0.188-0.104 0.219-0.219 0.14-0.406 0.005-0.645-0.406-0.719-0.604-0.031-1.208-0.042-1.813-0.031-0.038-0.216 0.035-0.383 0.219-0.5 0.47-1.152 0.126-1.954-1.031-2.406-1.077-0.274-1.879 0.070-2.406 1.031-0.19 0.617-0.065 1.158 0.375 1.625 0.031 0.081 0.041 0.164 0.031 0.25-1.583 0-3.167 0-4.75 0-0.010-3.438 0-6.875 0.031-10.313 0.086-0.95 0.576-1.575 1.469-1.875zM14.156 0.969c3.604-0.010 7.208 0 10.813 0.031 0.745 0.224 1.213 0.713 1.406 1.469 0.031 3.562 0.042 7.125 0.031 10.688-1.773-0.029-3.544 0.003-5.313 0.094-0.399 0.228-0.545 0.572-0.438 1.031 0.010 0.208 0.021 0.417 0.031 0.625 0.633 0.695 0.477 1.133-0.469 1.313-0.398-0.026-0.68-0.214-0.844-0.563-0.040-0.133-0.019-0.258 0.063-0.375 0.314-0.231 0.449-0.544 0.406-0.938 0.087-0.651-0.184-1.037-0.813-1.156-1.625-0.031-3.25-0.042-4.875-0.031 0-1.542 0-3.083 0-4.625 0.106-0.010 0.21 0 0.313 0.031 0.885 0.673 1.687 0.58 2.406-0.281 0.536-1.009 0.4-1.915-0.406-2.719-0.694-0.405-1.361-0.363-2 0.125-0.102 0.031-0.206 0.041-0.313 0.031 0-1.583 0-3.167 0-4.75z"></path>
<path d="M31.969 18.031c0 3.896 0 7.792 0 11.688-0.16 0.529-0.421 1.008-0.781 1.438-0.435 0.379-0.924 0.649-1.469 0.813-3.813 0-7.625 0-11.438 0-0.207-0.113-0.363-0.28-0.469-0.5-0.021-1.708-0.042-3.417-0.063-5.125-0.199-0.098-0.356-0.046-0.469 0.156-1.189 0.534-2.012 0.191-2.469-1.031-0.212-0.948 0.069-1.709 0.844-2.281 0.657-0.27 1.261-0.187 1.813 0.25 0.102 0.031 0.206 0.041 0.313 0.031-0.010-0.625 0-1.25 0.031-1.875 0.163-0.232 0.381-0.305 0.656-0.219 0.145 0.069 0.238 0.184 0.281 0.344 0.042 0.646 0.042 1.292 0 1.938-0.161 0.612-0.557 0.883-1.188 0.813-0.177-0.010-0.354-0.021-0.531-0.031-0.687-0.637-1.125-0.481-1.313 0.469 0.030 0.393 0.218 0.674 0.563 0.844 0.133 0.040 0.258 0.019 0.375-0.063 0.209-0.309 0.501-0.445 0.875-0.406 0.643-0.033 1.050 0.259 1.219 0.875 0.031 1.604 0.042 3.208 0.031 4.813 3.583 0.010 7.167 0 10.75-0.031 0.905-0.28 1.395-0.895 1.469-1.844 0.031-3.437 0.042-6.875 0.031-10.313-1.604 0-3.208 0-4.813 0-0.010 0.086 0.001 0.169 0.031 0.25 0.463 0.604 0.526 1.25 0.188 1.938-0.799 0.887-1.726 1.044-2.781 0.469-0.615-0.448-0.834-1.042-0.656-1.781 0.073-0.24 0.198-0.448 0.375-0.625 0.031-0.081 0.041-0.164 0.031-0.25-1.542 0-3.083 0-4.625 0 0.010 0.396 0 0.792-0.031 1.188-0.25 0.448-0.562 0.489-0.938 0.125-0.042-0.688-0.042-1.375 0-2.063 0.073-0.073 0.146-0.146 0.219-0.219 1.958-0.042 3.917-0.042 5.875 0 0.401 0.24 0.568 0.594 0.5 1.063-0.010 0.177-0.021 0.354-0.031 0.531-0.205 0.206-0.361 0.445-0.469 0.719 0.31 0.624 0.789 0.791 1.438 0.5 0.285-0.165 0.379-0.404 0.281-0.719-0.137-0.132-0.262-0.278-0.375-0.438-0.055-0.443-0.034-0.88 0.063-1.313 0.104-0.151 0.239-0.266 0.406-0.344 2-0.042 4-0.042 6 0 0.116 0.043 0.199 0.116 0.25 0.219z"></path>
</symbol> -->

<!-- <symbol id="icon-konferens" viewBox="0 0 32 32">
<path d="M18.8 21.5c0.3-0.5 0.1-1.1-0.3-1.4l-1.5-0.9v-2.2c0-0.6-0.4-1-1-1s-1 0.4-1 1v2.2l-1.5 0.9c-0.5 0.3-0.6 0.9-0.3 1.4s0.9 0.6 1.4 0.3l1.4-0.9c0 0 0.1 0 0.1 0s0.1 0 0.1 0l1.4 0.9c0 0.2 0.2 0.2 0.4 0.2 0.3 0 0.7-0.2 0.8-0.5z"></path>
<path d="M11 14h10c0.3 0 0.6-0.1 0.8-0.4 0.2-0.2 0.3-0.5 0.2-0.8-0.3-1.5-1.4-2.7-2.9-3.1-0.4-0.1-0.7-0.4-0.8-0.8 0.4-0.5 0.7-1.2 0.7-1.9v-2c0-1.7-1.3-3-3-3s-3 1.3-3 3v2c0 0.7 0.3 1.4 0.7 1.9-0.1 0.4-0.4 0.7-0.8 0.8-1.5 0.4-2.6 1.6-2.8 3.1-0.1 0.3 0 0.6 0.2 0.8 0.1 0.3 0.4 0.4 0.7 0.4z"></path>
<path d="M27.1 25.7c-0.4-0.1-0.7-0.4-0.8-0.8 0.4-0.5 0.7-1.2 0.7-1.9v-2c0-1.7-1.3-3-3-3s-3 1.3-3 3v2c0 0.7 0.3 1.4 0.7 1.9-0.1 0.4-0.4 0.7-0.8 0.8-1.5 0.4-2.6 1.6-2.8 3.1-0.1 0.3 0 0.6 0.2 0.8s0.5 0.4 0.8 0.4h10c0.3 0 0.6-0.1 0.8-0.4 0.2-0.2 0.3-0.5 0.2-0.8-0.4-1.5-1.6-2.7-3-3.1z"></path>
<path d="M11.1 25.7c-0.4-0.1-0.7-0.4-0.8-0.8 0.4-0.5 0.7-1.2 0.7-1.9v-2c0-1.7-1.3-3-3-3s-3 1.3-3 3v2c0 0.7 0.3 1.4 0.7 1.9-0.1 0.4-0.4 0.7-0.8 0.8-1.5 0.4-2.6 1.6-2.8 3.1-0.1 0.3 0 0.6 0.2 0.8 0.1 0.3 0.4 0.4 0.7 0.4h10c0.3 0 0.6-0.1 0.8-0.4 0.2-0.2 0.3-0.5 0.2-0.8-0.3-1.5-1.5-2.7-2.9-3.1z"></path>
</symbol>

<symbol id="icon-user" viewBox="0 0 32 32">
<path d="M18 22.082v-1.649c2.203-1.241 4-4.337 4-7.432 0-4.971 0-9-6-9s-6 4.029-6 9c0 3.096 1.797 6.191 4 7.432v1.649c-6.784 0.555-12 3.888-12 7.918h28c0-4.030-5.216-7.364-12-7.918z"></path>
</symbol>

<symbol id="icon-users" viewBox="0 0 36 32">
<path d="M24 24.082v-1.649c2.203-1.241 4-4.337 4-7.432 0-4.971 0-9-6-9s-6 4.029-6 9c0 3.096 1.797 6.191 4 7.432v1.649c-6.784 0.555-12 3.888-12 7.918h28c0-4.030-5.216-7.364-12-7.918z"></path>
<path d="M10.225 24.854c1.728-1.13 3.877-1.989 6.243-2.513-0.47-0.556-0.897-1.176-1.265-1.844-0.95-1.726-1.453-3.627-1.453-5.497 0-2.689 0-5.228 0.956-7.305 0.928-2.016 2.598-3.265 4.976-3.734-0.529-2.39-1.936-3.961-5.682-3.961-6 0-6 4.029-6 9 0 3.096 1.797 6.191 4 7.432v1.649c-6.784 0.555-12 3.888-12 7.918h8.719c0.454-0.403 0.956-0.787 1.506-1.146z"></path>
</symbol> -->

<symbol id="icon-circle-down" viewBox="0 0 32 32">
<path d="M32 16c0-8.837-7.163-16-16-16s-16 7.163-16 16 7.163 16 16 16 16-7.163 16-16zM3 16c0-7.18 5.82-13 13-13s13 5.82 13 13-5.82 13-13 13-13-5.82-13-13z"></path>
<path d="M9.914 11.086l-2.829 2.829 8.914 8.914 8.914-8.914-2.828-2.828-6.086 6.086z"></path>
</symbol>

<symbol id="icon-cross" viewBox="0 0 32 32">
<path d="M31.708 25.708c-0-0-0-0-0-0l-9.708-9.708 9.708-9.708c0-0 0-0 0-0 0.105-0.105 0.18-0.227 0.229-0.357 0.133-0.356 0.057-0.771-0.229-1.057l-4.586-4.586c-0.286-0.286-0.702-0.361-1.057-0.229-0.13 0.048-0.252 0.124-0.357 0.228 0 0-0 0-0 0l-9.708 9.708-9.708-9.708c-0-0-0-0-0-0-0.105-0.104-0.227-0.18-0.357-0.228-0.356-0.133-0.771-0.057-1.057 0.229l-4.586 4.586c-0.286 0.286-0.361 0.702-0.229 1.057 0.049 0.13 0.124 0.252 0.229 0.357 0 0 0 0 0 0l9.708 9.708-9.708 9.708c-0 0-0 0-0 0-0.104 0.105-0.18 0.227-0.229 0.357-0.133 0.355-0.057 0.771 0.229 1.057l4.586 4.586c0.286 0.286 0.702 0.361 1.057 0.229 0.13-0.049 0.252-0.124 0.357-0.229 0-0 0-0 0-0l9.708-9.708 9.708 9.708c0 0 0 0 0 0 0.105 0.105 0.227 0.18 0.357 0.229 0.356 0.133 0.771 0.057 1.057-0.229l4.586-4.586c0.286-0.286 0.362-0.702 0.229-1.057-0.049-0.13-0.124-0.252-0.229-0.357z"></path>
</symbol>

<symbol id="icon-checkmark" viewBox="0 0 32 32">
<path d="M9.757 10.228l6.587 6.213 11.528-13.174 3.144 2.77-14.297 17.442-10.105-10.105 3.144-3.144zM1.983 4.094h23.166l-2.837 2.837h-17.493v17.965h17.965v-6.146l2.837-3.546v12.529h-23.639v-23.639z"></path>
</symbol>

<symbol id="icon-stack" viewBox="0 0 32 32">
<path d="M32 10l-16-8-16 8 16 8 16-8zM16 4.655l10.689 5.345-10.689 5.345-10.689-5.345 10.689-5.345zM28.795 14.398l3.205 1.602-16 8-16-8 3.205-1.602 12.795 6.398zM28.795 20.398l3.205 1.602-16 8-16-8 3.205-1.602 12.795 6.398z"></path>
</symbol>

<symbol id="icon-circle-right" viewBox="0 0 32 32">
<path d="M16 0c-8.837 0-16 7.163-16 16s7.163 16 16 16 16-7.163 16-16-7.163-16-16-16zM16 29c-7.18 0-13-5.82-13-13s5.82-13 13-13 13 5.82 13 13-5.82 13-13 13z"></path>
<path d="M11.086 22.086l2.829 2.829 8.914-8.914-8.914-8.914-2.828 2.828 6.086 6.086z"></path>
</symbol>

<symbol id="icon-arrow" viewBox="0 0 43 32">
<path d="M5.789 15.997l11.89-11.89c0.961-0.961 0.961-2.45 0-3.411-0.937-0.937-2.426-0.937-3.387 0l-13.595 13.595c-0.937 0.961-0.937 2.45 0 3.387l13.595 13.595c0.961 0.961 2.45 0.961 3.387 0 0.961-0.961 0.961-2.45 0-3.387l-11.89-11.89z"></path>
<path d="M8.191 13.595l9.488-9.488c0.961-0.961 0.961-2.45 0-3.411-0.937-0.937-2.426-0.937-3.387 0l-13.595 13.595c-0.937 0.961-0.937 2.45 0 3.387l13.595 13.595c0.961 0.961 2.45 0.961 3.387 0 0.961-0.961 0.961-2.45 0-3.387l-9.488-9.488h34.469v-4.804h-34.469z"></path>
</symbol>

<symbol id="icon-menu" viewBox="0 0 32 32">
<path d="M2 6h28v6h-28zM2 14h28v6h-28zM2 22h28v6h-28z"></path>
</symbol>

</defs>
</svg>
