<svg aria-hidden="true" style="position: absolute; width: 0; height: 0; overflow: hidden;" version="1.1" xmlns="http://www.w3.org/2000/svg" xmlns:xlink="http://www.w3.org/1999/xlink">
<defs>
<symbol id="icon-telegram" viewBox="0 0 32 32">
<path d="M29.333 16c0 7.364-5.97 13.333-13.333 13.333s-13.333-5.97-13.333-13.333c0-7.364 5.97-13.333 13.333-13.333s13.333 5.97 13.333 13.333zM16.478 12.51c-1.297 0.539-3.889 1.656-7.776 3.349-0.631 0.251-0.962 0.497-0.992 0.737-0.051 0.406 0.457 0.566 1.149 0.783 0.094 0.030 0.192 0.060 0.292 0.093 0.681 0.221 1.597 0.48 2.073 0.491 0.432 0.009 0.914-0.169 1.446-0.534 3.632-2.451 5.506-3.691 5.624-3.717 0.083-0.019 0.198-0.043 0.276 0.027s0.070 0.201 0.062 0.236c-0.050 0.215-2.045 2.069-3.077 3.029-0.322 0.299-0.55 0.511-0.597 0.56-0.105 0.109-0.211 0.211-0.313 0.31-0.632 0.61-1.107 1.067 0.026 1.814 0.545 0.359 0.98 0.655 1.415 0.951 0.475 0.323 0.948 0.646 1.561 1.047 0.156 0.102 0.305 0.209 0.45 0.312 0.552 0.394 1.049 0.748 1.662 0.691 0.356-0.033 0.724-0.368 0.911-1.367 0.442-2.361 1.31-7.478 1.511-9.586 0.018-0.185-0.005-0.421-0.022-0.525s-0.055-0.252-0.19-0.361c-0.16-0.13-0.406-0.157-0.517-0.155-0.501 0.009-1.271 0.276-4.974 1.817z"></path>
</symbol>
<symbol id="icon-instagram" viewBox="0 0 32 32">
<path d="M10.79 3.5c-4.019 0-7.29 3.272-7.29 7.293v10.416c0 4.020 3.272 7.291 7.293 7.291h10.416c4.020 0 7.291-3.272 7.291-7.293v-10.417c0-4.019-3.272-7.29-7.293-7.29h-10.417zM23.5 7.5c0.552 0 1 0.448 1 1s-0.448 1-1 1c-0.552 0-1-0.448-1-1s0.448-1 1-1zM16 9.5c3.585 0 6.5 2.915 6.5 6.5s-2.916 6.5-6.5 6.5c-3.585 0-6.5-2.916-6.5-6.5s2.915-6.5 6.5-6.5zM16 11.5c-2.486 0-4.5 2.014-4.5 4.5s2.014 4.5 4.5 4.5c2.486 0 4.5-2.014 4.5-4.5s-2.014-4.5-4.5-4.5z"></path>
</symbol>
<symbol id="icon-facebook" viewBox="0 0 32 32">
<path d="M16 3c-7.179 0-13 5.821-13 13 0 6.517 4.801 11.899 11.056 12.84v-9.395h-3.216v-3.417h3.216v-2.274c0-3.764 1.834-5.416 4.963-5.416 1.498 0 2.291 0.111 2.666 0.162v2.982h-2.134c-1.328 0-1.792 1.26-1.792 2.679v1.867h3.893l-0.527 3.417h-3.365v9.422c6.345-0.86 11.241-6.285 11.241-12.867 0-7.179-5.82-13-13-13z"></path>
</symbol>
<symbol id="icon-email" viewBox="0 0 32 32">
<path d="M9.333 3.667h13.333c2.153 0 4.101 0.538 5.514 1.851 1.427 1.325 2.153 3.292 2.153 5.816v9.333c0 2.524-0.726 4.491-2.153 5.816-1.413 1.312-3.36 1.851-5.514 1.851h-13.333c-2.153 0-4.1-0.538-5.514-1.851-1.427-1.325-2.153-3.292-2.153-5.816v-9.333c0-2.524 0.726-4.491 2.153-5.816 1.413-1.312 3.361-1.851 5.514-1.851zM25.638 11.15c0.437-0.338 0.517-0.966 0.18-1.403s-0.966-0.518-1.403-0.18l-7.396 5.715c-0.6 0.464-1.438 0.464-2.038 0l-7.396-5.715c-0.437-0.338-1.065-0.257-1.403 0.18s-0.257 1.065 0.18 1.403l7.396 5.715c1.321 1.020 3.163 1.020 4.484 0l7.396-5.715z"></path>
</symbol>
</defs>
</svg>
