<svg width="238" height="232" viewBox="0 0 238 232" fill="none" xmlns="http://www.w3.org/2000/svg">
<path fill-rule="evenodd" clip-rule="evenodd" d="M129.886 35.946C129.886 14.7533 142.953 6.77512 158.145 7.53337C173.338 8.29162 183.676 19.8537 182.725 35.946C182.49 39.9258 184.871 39.0406 188.771 37.5913C193.374 35.8801 200.094 33.3823 207.121 37.1775C220.1 44.1869 221.891 60.694 217.458 68.4508C215.84 71.2799 217.767 71.6583 220.945 72.2827C226.482 73.3703 235.819 75.2045 236.853 92.0363C237.747 106.584 229.604 112.674 225.769 115.542C225.471 115.764 225.2 115.967 224.96 116.154C235.415 123.608 241.877 134.706 235.415 149.614C230.92 159.983 222.782 161.947 217.997 163.102C217.053 163.33 216.239 163.526 215.61 163.749C219.551 172.491 224.48 186.551 211.176 197.732C200.145 207.003 186.79 202.041 182.725 200.317C183.218 210.29 179.743 227.629 162.773 231.345C141.81 235.934 129.888 215.462 129.888 200.317C129.888 199.213 129.888 197.378 129.888 194.915C130.211 191.302 130.906 187.909 132.055 184.463C135.36 174.552 149.679 154.95 182.281 166.948C189.938 169.766 183.864 165.601 177.78 161.429L177.472 161.218C172.53 157.828 159.038 151.132 144.438 158.048C129.837 164.964 154.639 137.773 165.676 129.923C172.658 124.956 183.675 121.885 207.13 118.79C214.58 117.807 178.748 115.675 172.53 118.79C170.718 119.699 171.258 116.15 172.105 110.585C173.197 103.414 174.798 92.8953 172.53 84.2552C171.304 79.585 171.122 82.3006 170.754 87.7711C170.275 94.8861 169.484 106.661 165.676 112.909C153.747 132.48 135.646 143.152 132.055 143.806C128.465 144.459 130.275 105.429 135.498 91.3794C140.72 77.3299 152.945 53.444 162.738 47.5628C172.53 41.6816 141.689 53.6139 133.855 72.5643C132.317 76.2839 131.007 77.9714 129.887 78.2456C129.887 62.6912 129.886 48.0252 129.886 35.946ZM149.934 19.0401C138.278 26.176 136.518 42.3467 146.379 52.7319C158.035 45.596 160.487 28.7673 149.934 19.0401ZM196.364 52.2993C187.489 60.2953 173.459 57.2043 168.114 46.81C177.681 39.0032 191.019 41.905 196.364 52.2993ZM156.442 104.283C155.873 116.221 143.805 124.025 132.666 120.511C133.857 108.214 145.303 100.769 156.442 104.283ZM148.808 73.339C162.727 75.5865 170.279 90.792 164.688 103.411C150.43 100.386 143.217 85.9579 148.808 73.339ZM172.393 131.479C186.138 123.244 203.812 130.936 208.17 146C193.564 153.808 176.751 146.543 172.393 131.479ZM150.368 170.616C165.429 165.157 181.313 176.083 182.719 191.703C166.893 196.577 151.774 186.236 150.368 170.616ZM198.686 75.7488C206.05 90.0519 197.228 107.281 181.878 110.69C174.997 95.5496 183.336 79.158 198.686 75.7488ZM161.487 57.2437C171.485 60.4444 175.359 72.4769 169.844 81.1454C159.683 77.3349 155.972 65.9122 161.487 57.2437ZM189.691 167.104C193.778 157.425 206.099 154.649 214.226 160.929C209.518 170.715 197.818 173.384 189.691 167.104ZM156.676 154.331C156.163 145.514 164.421 138.837 172.88 140.547C172.964 149.676 165.135 156.041 156.676 154.331ZM200.887 110.905C202.618 102.244 212.294 97.8741 220.046 101.67C217.822 110.524 208.639 114.701 200.887 110.905ZM206.68 123.084C216.01 118.271 227.249 124.037 229.473 134.07C219.597 138.568 208.904 133.117 206.68 123.084Z" fill="#B51733"/>
<path fill-rule="evenodd" clip-rule="evenodd" d="M53.5145 53.839C62.3838 61.7673 76.4059 58.7025 81.7475 48.3963C72.1865 40.6556 58.8561 43.5328 53.5145 53.839Z" fill="#B51733"/>
<path fill-rule="evenodd" clip-rule="evenodd" d="M93.4114 105.382C93.9808 117.219 106.041 124.956 117.173 121.473C115.983 109.279 104.544 101.898 93.4114 105.382Z" fill="#B51733"/>
<path fill-rule="evenodd" clip-rule="evenodd" d="M101.041 74.7004C87.1305 76.9288 79.5831 92.0054 85.1706 104.517C99.4201 101.518 106.629 87.2123 101.041 74.7004Z" fill="#B51733"/>
<path fill-rule="evenodd" clip-rule="evenodd" d="M77.4704 132.348C63.7349 124.183 46.0712 131.809 41.7159 146.746C56.3133 154.487 73.1151 147.284 77.4704 132.348Z" fill="#B51733"/>
<path fill-rule="evenodd" clip-rule="evenodd" d="M99.4824 171.153C84.4305 165.74 68.5566 176.574 67.151 192.061C82.9674 196.894 98.0768 186.64 99.4824 171.153Z" fill="#B51733"/>
<path fill-rule="evenodd" clip-rule="evenodd" d="M51.1946 77.0898C43.8352 91.2715 52.6517 108.354 67.9917 111.735C74.8685 96.7227 66.5346 80.4701 51.1946 77.0898Z" fill="#B51733"/>
<path fill-rule="evenodd" clip-rule="evenodd" d="M88.3701 58.7415C78.3785 61.915 74.507 73.8455 80.0184 82.4405C90.1732 78.6624 93.8815 67.3365 88.3701 58.7415Z" fill="#B51733"/>
<path fill-rule="evenodd" clip-rule="evenodd" d="M60.1837 167.67C56.0995 158.074 43.786 155.321 35.664 161.548C40.3692 171.251 52.0617 173.897 60.1837 167.67Z" fill="#B51733"/>
<path fill-rule="evenodd" clip-rule="evenodd" d="M48.9949 111.948C47.2652 103.361 37.5949 99.0275 29.8478 102.791C32.0707 111.571 41.2478 115.712 48.9949 111.948Z" fill="#B51733"/>
<path fill-rule="evenodd" clip-rule="evenodd" d="M43.2056 124.024C33.8809 119.251 22.6487 124.969 20.4261 134.916C30.2967 139.376 40.983 133.972 43.2056 124.024Z" fill="#B51733"/>
<path fill-rule="evenodd" clip-rule="evenodd" d="M99.9162 20.8617C111.565 27.9372 113.323 43.9708 103.468 54.268C91.8199 47.1926 89.3697 30.5064 99.9162 20.8617Z" fill="#B51733"/>
<path d="M117.784 184.883C120.807 195.687 122.789 224.348 96.4205 232C96.4205 232 123.88 230.51 123.88 196.029C123.88 161.548 123.88 132.348 123.88 132.348C123.88 91.1998 115.882 79.2861 112.164 72.5252C106.133 61.56 79.6537 40.5766 87.12 49.1427C93.4114 56.3607 109.124 78.6575 114.343 92.5878C119.563 106.518 121.372 145.218 117.784 144.57C114.195 143.922 96.1054 133.34 84.1841 113.935C77.4523 102.977 80.1525 74.871 77.3338 85.524C73.3082 100.738 81.4795 121.828 77.3338 119.766C71.1196 116.677 35.3102 118.792 42.7557 119.766C66.1954 122.835 77.2063 125.88 84.1841 130.805C95.2135 138.588 120 165.548 105.409 158.691C90.8172 151.834 77.3339 158.473 72.3949 161.834L72.0872 162.043C66.0072 166.18 59.9373 170.31 67.5891 167.516C100.171 155.62 115.751 177.62 117.784 184.883Z" fill="#B51733"/>
<path fill-rule="evenodd" clip-rule="evenodd" d="M31.7531 59.9611C40.845 54.7462 52.1148 59.1163 55.1781 68.6647C46.0862 73.8797 34.8164 69.5095 31.7531 59.9611Z" fill="#B51733"/>
<path fill-rule="evenodd" clip-rule="evenodd" d="M48.5603 16.8246C60.7738 18.1277 68.3707 29.9711 64.6154 41.0829C52.4019 39.7798 44.805 27.9364 48.5603 16.8246Z" fill="#B51733"/>
<path fill-rule="evenodd" clip-rule="evenodd" d="M109.859 0.0698761C111.225 10.8698 102.403 19.8536 91.8911 18.8977C90.5247 8.09782 99.3463 -0.886015 109.859 0.0698761Z" fill="#B51733"/>
<path fill-rule="evenodd" clip-rule="evenodd" d="M79.3298 15.1153C90.4464 20.7897 93.2867 34.7958 85.6171 43.9833C74.5005 38.309 71.6603 24.3028 79.3298 15.1153Z" fill="#B51733"/>
<path fill-rule="evenodd" clip-rule="evenodd" d="M37.2202 193.765C38.7962 180.952 51.5603 173.149 63.3718 177.262C61.7958 190.075 49.0317 197.878 37.2202 193.765Z" fill="#B51733"/>
<path fill-rule="evenodd" clip-rule="evenodd" d="M58.7807 214.225C53.0766 206.519 55.9717 195.885 64.4487 192.161C70.1528 199.867 67.2577 210.5 58.7807 214.225Z" fill="#B51733"/>
<path fill-rule="evenodd" clip-rule="evenodd" d="M0.197534 120.786C9.82309 120.286 17.1964 128.522 15.6833 137.595C6.05777 138.095 -1.31558 129.858 0.197534 120.786Z" fill="#B51733"/>
<path fill-rule="evenodd" clip-rule="evenodd" d="M76.6058 139.53C84.6093 138.693 91.1231 145.238 90.2645 152.868C82.261 153.706 75.7473 147.161 76.6058 139.53Z" fill="#B51733"/>
<path fill-rule="evenodd" clip-rule="evenodd" d="M9.11483 147.956C17.6539 140.548 30.5171 142.848 35.7718 152.334C27.2327 159.742 14.3695 157.442 9.11483 147.956Z" fill="#B51733"/>
<path fill-rule="evenodd" clip-rule="evenodd" d="M6.54555 100.654C17.5403 97.881 27.9615 105.706 28.3191 116.523C17.3243 119.296 6.90314 111.472 6.54555 100.654Z" fill="#B51733"/>
<path fill-rule="evenodd" clip-rule="evenodd" d="M8.26585 171.302C18.5031 161.545 34.72 163.672 41.8499 175.225C31.6127 184.983 15.3958 182.856 8.26585 171.302Z" fill="#B51733"/>
<path fill-rule="evenodd" clip-rule="evenodd" d="M10.2375 72.7743C24.6451 66.4159 40.7742 74.7111 43.8233 89.4488C29.4157 95.8071 13.2867 87.512 10.2375 72.7743Z" fill="#B51733"/>
<path fill-rule="evenodd" clip-rule="evenodd" d="M24.6261 29.9462C37.7972 28.7573 48.3447 39.6643 46.7524 52.1828C33.5813 53.3718 23.0338 42.4647 24.6261 29.9462Z" fill="#B51733"/>
</svg>
