<svg width="455" height="307" viewBox="0 0 455 307" fill="none" xmlns="http://www.w3.org/2000/svg">
<path fill-rule="evenodd" clip-rule="evenodd" d="M234.255 25.0548C234.255 10.2833 243.335 4.72244 253.892 5.25095C264.449 5.77945 271.632 13.8383 270.972 25.0548C270.808 27.8287 272.463 27.2118 275.172 26.2016C278.371 25.0088 283.041 23.2679 287.924 25.9131C296.943 30.7988 298.187 42.3043 295.106 47.7109C293.983 49.6828 295.321 49.9465 297.53 50.3817C301.377 51.1398 307.866 52.4182 308.584 64.1501C309.205 74.2901 303.546 78.5349 300.882 80.5338C300.675 80.6888 300.486 80.8304 300.32 80.9601C307.585 86.1562 312.075 93.8914 307.585 104.282C304.461 111.51 298.806 112.879 295.481 113.683C294.825 113.842 294.26 113.979 293.823 114.135C296.561 120.228 299.986 130.027 290.742 137.821C283.076 144.283 273.796 140.824 270.972 139.623C271.314 146.574 268.899 158.659 257.107 161.249C242.541 164.448 234.256 150.179 234.256 139.623C234.256 138.853 234.256 137.574 234.256 135.857C234.481 133.339 234.964 130.974 235.762 128.573C238.059 121.665 248.008 108.002 270.663 116.364C275.983 118.328 271.763 115.425 267.535 112.517L267.321 112.37C263.887 110.008 254.512 105.34 244.367 110.161C234.221 114.981 251.455 96.029 259.124 90.5574C263.976 87.0957 271.632 84.9552 287.93 82.798C293.107 82.1128 268.208 80.6262 263.887 82.798C262.628 83.4311 263.003 80.9574 263.592 77.0789C264.351 72.0805 265.463 64.7489 263.887 58.7267C263.035 55.4715 262.909 57.3643 262.653 61.1773C262.32 66.1365 261.77 74.3439 259.124 78.6987C250.835 92.3399 238.257 99.7784 235.762 100.234C233.267 100.689 234.525 73.4848 238.154 63.6923C241.783 53.8997 250.278 37.251 257.083 33.1518C263.887 29.0526 242.456 37.3694 237.013 50.578C235.944 53.1706 235.034 54.3468 234.255 54.5379C234.255 43.6964 234.255 33.4741 234.255 25.0548ZM248.185 13.2712C240.086 18.245 238.863 29.5161 245.716 36.7547C253.815 31.7809 255.519 20.0511 248.185 13.2712ZM280.449 36.4531C274.282 42.0265 264.532 39.872 260.818 32.6271C267.466 27.1856 276.735 29.2082 280.449 36.4531ZM252.708 72.686C252.312 81.0073 243.927 86.4463 236.187 83.9975C237.014 75.4259 244.968 70.2372 252.708 72.686ZM247.403 51.118C257.076 52.6845 262.323 63.2828 258.438 72.0783C248.53 69.9701 243.518 59.9135 247.403 51.118ZM263.792 91.6423C273.343 85.9024 285.625 91.2637 288.653 101.763C278.503 107.205 266.821 102.142 263.792 91.6423ZM248.487 118.921C258.953 115.116 269.99 122.732 270.968 133.619C259.97 137.016 249.464 129.808 248.487 118.921ZM282.062 52.7977C287.179 62.767 281.049 74.7756 270.383 77.1519C265.601 66.599 271.396 55.1739 282.062 52.7977ZM256.214 39.8995C263.161 42.1303 265.853 50.5171 262.021 56.5591C254.96 53.9032 252.381 45.9415 256.214 39.8995ZM275.812 116.473C278.652 109.727 287.214 107.792 292.861 112.169C289.589 118.99 281.459 120.85 275.812 116.473ZM252.871 107.57C252.514 101.425 258.252 96.7704 264.13 97.9626C264.189 104.326 258.749 108.762 252.871 107.57ZM283.592 77.3018C284.794 71.2654 291.518 68.2192 296.905 70.865C295.359 77.0365 288.978 79.9476 283.592 77.3018ZM287.617 85.7907C294.101 82.4357 301.911 86.4549 303.456 93.4479C296.593 96.5828 289.162 92.7837 287.617 85.7907Z" fill="#B51733"/>
<path fill-rule="evenodd" clip-rule="evenodd" d="M181.186 37.5262C187.349 43.0523 197.093 40.9161 200.805 33.7326C194.161 28.3373 184.898 30.3427 181.186 37.5262Z" fill="#B51733"/>
<path fill-rule="evenodd" clip-rule="evenodd" d="M208.91 73.452C209.305 81.7027 217.686 87.0956 225.421 84.6675C224.594 76.1686 216.645 71.0239 208.91 73.452Z" fill="#B51733"/>
<path fill-rule="evenodd" clip-rule="evenodd" d="M214.211 52.0668C204.545 53.62 199.301 64.1285 203.183 72.8494C213.085 70.7591 218.094 60.7877 214.211 52.0668Z" fill="#B51733"/>
<path fill-rule="evenodd" clip-rule="evenodd" d="M197.832 92.2476C188.288 86.5563 176.014 91.8722 172.987 102.283C183.131 107.679 194.806 102.658 197.832 92.2476Z" fill="#B51733"/>
<path fill-rule="evenodd" clip-rule="evenodd" d="M213.128 119.295C202.669 115.522 191.638 123.073 190.662 133.868C201.652 137.237 212.151 130.089 213.128 119.295Z" fill="#B51733"/>
<path fill-rule="evenodd" clip-rule="evenodd" d="M179.574 53.7322C174.46 63.617 180.587 75.5238 191.246 77.8799C196.024 67.4165 190.233 56.0883 179.574 53.7322Z" fill="#B51733"/>
<path fill-rule="evenodd" clip-rule="evenodd" d="M205.406 40.9433C198.464 43.1553 195.773 51.4709 199.603 57.4617C206.659 54.8283 209.236 46.9341 205.406 40.9433Z" fill="#B51733"/>
<path fill-rule="evenodd" clip-rule="evenodd" d="M185.82 116.867C182.982 110.179 174.426 108.26 168.782 112.6C172.052 119.364 180.177 121.208 185.82 116.867Z" fill="#B51733"/>
<path fill-rule="evenodd" clip-rule="evenodd" d="M178.045 78.0286C176.844 72.0433 170.124 69.023 164.741 71.6464C166.285 77.7656 172.662 80.652 178.045 78.0286Z" fill="#B51733"/>
<path fill-rule="evenodd" clip-rule="evenodd" d="M174.023 86.4455C167.543 83.119 159.738 87.1041 158.194 94.0379C165.053 97.1462 172.478 93.3792 174.023 86.4455Z" fill="#B51733"/>
<path fill-rule="evenodd" clip-rule="evenodd" d="M213.43 14.5408C221.524 19.4724 222.746 30.648 215.898 37.8252C207.804 32.8936 206.101 21.2632 213.43 14.5408Z" fill="#B51733"/>
<path d="M225.845 128.865C227.946 136.395 229.323 156.373 211.001 161.706C211.001 161.706 230.082 160.668 230.082 136.634C230.082 112.6 230.082 92.2476 230.082 92.2476C230.082 63.567 224.524 55.263 221.94 50.5507C217.75 42.9078 199.35 28.2822 204.538 34.2528C208.91 39.2839 219.828 54.8249 223.455 64.5344C227.081 74.244 228.339 101.218 225.845 100.766C223.352 100.315 210.782 92.9392 202.498 79.4137C197.82 71.7759 199.696 52.1857 197.738 59.6109C194.94 70.2154 200.618 84.9148 197.738 83.4782C193.419 81.3248 168.536 82.7988 173.71 83.4782C189.998 85.6171 197.649 87.7395 202.498 91.1718C210.162 96.597 227.385 115.388 217.246 110.609C207.107 105.83 197.738 110.457 194.306 112.8L194.092 112.946C189.867 115.829 185.649 118.707 190.966 116.76C213.607 108.468 224.433 123.803 225.845 128.865Z" fill="#B51733"/>
<path fill-rule="evenodd" clip-rule="evenodd" d="M166.065 41.7934C172.382 38.1585 180.213 41.2045 182.342 47.8598C176.024 51.4947 168.193 48.4487 166.065 41.7934Z" fill="#B51733"/>
<path fill-rule="evenodd" clip-rule="evenodd" d="M177.744 11.7269C186.23 12.6352 191.509 20.8901 188.9 28.6351C180.413 27.7268 175.134 19.4719 177.744 11.7269Z" fill="#B51733"/>
<path fill-rule="evenodd" clip-rule="evenodd" d="M220.338 0.0487042C221.288 7.57631 215.158 13.8381 207.853 13.1719C206.904 5.64425 213.034 -0.61756 220.338 0.0487042Z" fill="#B51733"/>
<path fill-rule="evenodd" clip-rule="evenodd" d="M199.125 10.5355C206.849 14.4906 208.823 24.253 203.493 30.6567C195.769 26.7017 193.795 16.9393 199.125 10.5355Z" fill="#B51733"/>
<path fill-rule="evenodd" clip-rule="evenodd" d="M169.863 135.056C170.959 126.125 179.828 120.686 188.036 123.553C186.941 132.484 178.071 137.923 169.863 135.056Z" fill="#B51733"/>
<path fill-rule="evenodd" clip-rule="evenodd" d="M184.845 149.317C180.882 143.945 182.894 136.534 188.784 133.938C192.748 139.309 190.736 146.721 184.845 149.317Z" fill="#B51733"/>
<path fill-rule="evenodd" clip-rule="evenodd" d="M144.137 84.1888C150.826 83.8403 155.949 89.5809 154.898 95.9045C148.209 96.2531 143.086 90.5124 144.137 84.1888Z" fill="#B51733"/>
<path fill-rule="evenodd" clip-rule="evenodd" d="M197.232 97.2536C202.793 96.6698 207.319 101.232 206.723 106.55C201.161 107.134 196.635 102.572 197.232 97.2536Z" fill="#B51733"/>
<path fill-rule="evenodd" clip-rule="evenodd" d="M150.334 103.126C156.267 97.963 165.206 99.5662 168.857 106.178C162.923 111.341 153.985 109.738 150.334 103.126Z" fill="#B51733"/>
<path fill-rule="evenodd" clip-rule="evenodd" d="M148.548 70.1568C156.188 68.2239 163.43 73.6777 163.678 81.2176C156.038 83.1506 148.797 77.6968 148.548 70.1568Z" fill="#B51733"/>
<path fill-rule="evenodd" clip-rule="evenodd" d="M149.744 119.399C156.857 112.598 168.126 114.081 173.081 122.133C165.967 128.935 154.698 127.452 149.744 119.399Z" fill="#B51733"/>
<path fill-rule="evenodd" clip-rule="evenodd" d="M151.114 50.7243C161.125 46.2924 172.333 52.0742 174.452 62.3465C164.44 66.7783 153.233 60.9966 151.114 50.7243Z" fill="#B51733"/>
<path fill-rule="evenodd" clip-rule="evenodd" d="M161.112 20.8728C170.264 20.0441 177.594 27.6463 176.487 36.3718C167.335 37.2006 160.006 29.5983 161.112 20.8728Z" fill="#B51733"/>
<path fill-rule="evenodd" clip-rule="evenodd" d="M220.776 193.705C222.88 203.112 215.948 211.774 206.701 211.815C204.596 202.409 211.529 193.746 220.776 193.705Z" fill="#B51733"/>
<path fill-rule="evenodd" clip-rule="evenodd" d="M453.959 193.705C456.064 203.112 449.132 211.774 439.885 211.815C437.78 202.409 444.712 193.747 453.959 193.705Z" fill="#B51733"/>
<path d="M35.5814 204.279H42.0574V257.135H36.5013L6.47603 215.89V257.135H0V204.279H5.96089L35.5814 245.045V204.279Z" fill="#1C1D1D"/>
<path d="M89.7813 216.369H94.8959V257.135H89.5973L88.8982 250.943C86.9848 253.179 84.6544 254.924 81.907 256.177C79.1842 257.406 76.1915 258.02 72.9289 258.02C68.9795 258.02 65.3981 257.098 62.1846 255.255C58.9711 253.412 56.4445 250.869 54.6047 247.626C52.7894 244.357 51.8818 240.733 51.8818 236.752C51.8818 230.658 53.881 225.596 57.8795 221.566C61.9025 217.512 66.919 215.484 72.9289 215.484C76.1915 215.484 79.2087 216.111 81.9806 217.364C84.7526 218.617 87.0952 220.374 89.0086 222.635L89.7813 216.369ZM62.6997 247.515C65.5453 250.39 69.1144 251.828 73.4073 251.828C77.7001 251.828 81.257 250.402 84.078 247.552C86.9235 244.677 88.3463 241.077 88.3463 236.752C88.3463 232.427 86.9235 228.84 84.078 225.989C81.257 223.114 77.7001 221.677 73.4073 221.677C69.1144 221.677 65.5453 223.114 62.6997 225.989C59.8542 228.864 58.4314 232.452 58.4314 236.752C58.4314 241.052 59.8542 244.64 62.6997 247.515Z" fill="#1C1D1D"/>
<path d="M124.664 251.201H129.079V257.135H123.817C119.426 257.135 115.968 255.87 113.441 253.339C110.939 250.783 109.688 247.294 109.688 242.871V222.156H102.513V221.013L115.097 207.744H116.09V216.369H128.858V222.156H116.09V242.686C116.09 245.439 116.826 247.552 118.298 249.026C119.77 250.476 121.892 251.201 124.664 251.201Z" fill="#1C1D1D"/>
<path d="M171.836 216.369H176.95V257.135H171.652L170.952 250.943C169.039 253.179 166.709 254.924 163.961 256.177C161.238 257.406 158.246 258.02 154.983 258.02C151.034 258.02 147.452 257.098 144.239 255.255C141.025 253.412 138.499 250.869 136.659 247.626C134.844 244.357 133.936 240.733 133.936 236.752C133.936 230.658 135.935 225.596 139.934 221.566C143.957 217.512 148.973 215.484 154.983 215.484C158.246 215.484 161.263 216.111 164.035 217.364C166.807 218.617 169.149 220.374 171.063 222.635L171.836 216.369ZM144.754 247.515C147.599 250.39 151.169 251.828 155.461 251.828C159.754 251.828 163.311 250.402 166.132 247.552C168.978 244.677 170.4 241.077 170.4 236.752C170.4 232.427 168.978 228.84 166.132 225.989C163.311 223.114 159.754 221.677 155.461 221.677C151.169 221.677 147.599 223.114 144.754 225.989C141.908 228.864 140.486 232.452 140.486 236.752C140.486 241.052 141.908 244.64 144.754 247.515Z" fill="#1C1D1D"/>
<path d="M189.829 257.135V201.809H196.268V257.135H189.829Z" fill="#1C1D1D"/>
<path d="M278.101 229.712C280.53 230.769 282.443 232.452 283.841 234.762C285.264 237.072 285.976 239.676 285.976 242.576C285.976 246.68 284.442 250.132 281.376 252.933C278.31 255.735 274.52 257.135 270.006 257.135H248.886V204.279H269.712C274.005 204.279 277.549 205.569 280.346 208.149C283.167 210.729 284.577 213.948 284.577 217.806C284.577 220.215 283.989 222.512 282.811 224.699C281.634 226.886 280.064 228.557 278.101 229.712ZM277.844 218.691C277.844 216.455 277.046 214.575 275.452 213.052C273.857 211.528 271.895 210.766 269.565 210.766H255.435V226.616H269.601C271.932 226.616 273.882 225.854 275.452 224.33C277.046 222.782 277.844 220.903 277.844 218.691ZM269.933 250.574C272.582 250.574 274.777 249.751 276.519 248.105C278.261 246.434 279.132 244.345 279.132 241.839C279.132 239.357 278.248 237.28 276.482 235.609C274.741 233.938 272.557 233.103 269.933 233.103H255.435V250.574H269.933Z" fill="#1C1D1D"/>
<path d="M331.381 216.369H336.496V257.135H331.197L330.498 250.943C328.585 253.179 326.254 254.924 323.507 256.177C320.784 257.406 317.791 258.02 314.529 258.02C310.58 258.02 306.998 257.098 303.785 255.255C300.571 253.412 298.045 250.869 296.205 247.626C294.389 244.357 293.482 240.733 293.482 236.752C293.482 230.658 295.481 225.596 299.48 221.566C303.502 217.512 308.519 215.484 314.529 215.484C317.791 215.484 320.809 216.111 323.581 217.364C326.353 218.617 328.695 220.374 330.609 222.635L331.381 216.369ZM304.3 247.515C307.145 250.39 310.714 251.828 315.007 251.828C319.3 251.828 322.857 250.402 325.678 247.552C328.524 244.677 329.946 241.077 329.946 236.752C329.946 232.427 328.524 228.84 325.678 225.989C322.857 223.114 319.3 221.677 315.007 221.677C310.714 221.677 307.145 223.114 304.3 225.989C301.454 228.864 300.031 232.452 300.031 236.752C300.031 241.052 301.454 244.64 304.3 247.515Z" fill="#1C1D1D"/>
<path d="M376.235 257.135L362.29 238.853H356.476V257.135H350.073V201.809H356.476V232.919H362.4L374.947 216.369H382.748L367.919 235.904L384.257 257.135H376.235Z" fill="#1C1D1D"/>
<path d="M424.548 216.369H429.662V257.135H424.364L423.665 250.943C421.751 253.179 419.421 254.924 416.674 256.177C413.951 257.406 410.958 258.02 407.695 258.02C403.746 258.02 400.165 257.098 396.951 255.255C393.738 253.412 391.211 250.869 389.371 247.626C387.556 244.357 386.648 240.733 386.648 236.752C386.648 230.658 388.648 225.596 392.646 221.566C396.669 217.512 401.685 215.484 407.695 215.484C410.958 215.484 413.975 216.111 416.747 217.364C419.519 218.617 421.862 220.374 423.775 222.635L424.548 216.369ZM397.466 247.515C400.312 250.39 403.881 251.828 408.174 251.828C412.467 251.828 416.023 250.402 418.844 247.552C421.69 244.677 423.113 241.077 423.113 236.752C423.113 232.427 421.69 228.84 418.844 225.989C416.023 223.114 412.467 221.677 408.174 221.677C403.881 221.677 400.312 223.114 397.466 225.989C394.621 228.864 393.198 232.452 393.198 236.752C393.198 241.052 394.621 244.64 397.466 247.515Z" fill="#1C1D1D"/>
<path d="M209.192 257.189V216.423H215.631V257.189H209.192Z" fill="#1C1D1D"/>
<path d="M442.432 257.189V216.423H448.871V257.189H442.432Z" fill="#1C1D1D"/>
<path d="M105.365 282.286C107.095 282.286 108.651 282.684 110.031 283.48C111.411 284.276 112.484 285.375 113.248 286.777C114.023 288.168 114.411 289.734 114.411 291.475C114.411 294.108 113.556 296.301 111.847 298.052C110.137 299.794 107.976 300.664 105.365 300.664C104.069 300.664 102.854 300.425 101.717 299.948C100.592 299.47 99.6152 298.796 98.7871 297.925V306.573H96V282.668H97.9111L98.4686 285.359C99.2967 284.393 100.305 283.639 101.495 283.098C102.684 282.556 103.974 282.286 105.365 282.286ZM100.507 296.125C101.749 297.368 103.299 297.989 105.158 297.989C107.016 297.989 108.555 297.373 109.776 296.141C110.997 294.899 111.608 293.344 111.608 291.475C111.608 289.606 110.997 288.056 109.776 286.825C108.555 285.582 107.016 284.961 105.158 284.961C103.299 284.961 101.749 285.582 100.507 286.825C99.2755 288.067 98.6597 289.617 98.6597 291.475C98.6597 293.333 99.2755 294.883 100.507 296.125Z" fill="#AC7421"/>
<path d="M129.408 300.664C127.327 300.664 125.655 300.144 124.391 299.104C123.128 298.063 122.459 296.656 122.385 294.883H125.092C125.166 295.902 125.602 296.693 126.398 297.256C127.205 297.819 128.24 298.1 129.504 298.1C130.725 298.1 131.717 297.856 132.482 297.368C133.257 296.879 133.644 296.21 133.644 295.361C133.644 295.032 133.591 294.735 133.485 294.469C133.379 294.204 133.209 293.981 132.975 293.8C132.742 293.609 132.508 293.45 132.275 293.322C132.041 293.184 131.717 293.062 131.303 292.956C130.9 292.85 130.549 292.77 130.252 292.717C129.965 292.654 129.573 292.579 129.074 292.494C128.681 292.431 128.373 292.377 128.15 292.335C127.938 292.293 127.64 292.229 127.258 292.144C126.886 292.059 126.589 291.979 126.366 291.905C126.143 291.831 125.867 291.735 125.538 291.618C125.209 291.502 124.943 291.374 124.742 291.236C124.551 291.098 124.333 290.939 124.089 290.758C123.844 290.567 123.648 290.36 123.499 290.137C123.361 289.914 123.223 289.67 123.085 289.405C122.947 289.129 122.846 288.821 122.783 288.481C122.73 288.141 122.703 287.775 122.703 287.382C122.703 285.864 123.314 284.637 124.535 283.703C125.756 282.758 127.359 282.286 129.344 282.286C131.33 282.286 132.917 282.779 134.106 283.767C135.306 284.744 135.932 286.065 135.986 287.732H133.358C133.305 286.777 132.922 286.044 132.211 285.535C131.5 285.014 130.523 284.754 129.281 284.754C128.091 284.754 127.147 284.988 126.446 285.455C125.745 285.911 125.395 286.522 125.395 287.286C125.395 287.584 125.442 287.854 125.538 288.099C125.634 288.332 125.793 288.534 126.016 288.704C126.239 288.874 126.462 289.017 126.685 289.134C126.908 289.251 127.216 289.357 127.608 289.452C128.001 289.548 128.336 289.622 128.612 289.675C128.888 289.728 129.275 289.792 129.774 289.866C131.516 290.153 132.763 290.456 133.517 290.774C135.258 291.507 136.203 292.792 136.352 294.628C136.373 294.83 136.384 295.032 136.384 295.234C136.384 296.879 135.747 298.196 134.473 299.183C133.198 300.171 131.51 300.664 129.408 300.664Z" fill="#AC7421"/>
<path d="M158.15 282.668H161.096L152.703 301.015C151.747 303.106 150.771 304.556 149.772 305.363C148.785 306.17 147.463 306.573 145.807 306.573H144.151V304.057H145.568C146.736 304.057 147.617 303.818 148.212 303.34C148.806 302.862 149.459 301.88 150.171 300.394L150.808 299.088L142.972 282.668H145.998L152.257 295.998L158.15 282.668Z" fill="#AC7421"/>
<path d="M176.73 300.664C175.021 300.664 173.466 300.266 172.064 299.47C170.663 298.674 169.564 297.575 168.767 296.173C167.971 294.761 167.573 293.195 167.573 291.475C167.573 289.744 167.971 288.178 168.767 286.777C169.564 285.375 170.663 284.276 172.064 283.48C173.466 282.684 175.021 282.286 176.73 282.286C178.822 282.286 180.632 282.859 182.161 284.006C183.701 285.152 184.741 286.686 185.283 288.608H182.543C182.023 287.472 181.248 286.58 180.218 285.933C179.188 285.285 178.026 284.961 176.73 284.961C174.925 284.961 173.418 285.588 172.207 286.84C171.008 288.083 170.408 289.628 170.408 291.475C170.408 293.312 171.013 294.857 172.223 296.109C173.434 297.362 174.936 297.989 176.73 297.989C178.026 297.989 179.178 297.66 180.186 297.001C181.195 296.343 181.97 295.425 182.512 294.246H185.315C184.773 296.189 183.722 297.745 182.161 298.912C180.611 300.08 178.801 300.664 176.73 300.664Z" fill="#AC7421"/>
<path d="M203.226 282.286C205.318 282.286 206.974 282.96 208.195 284.308C209.416 285.646 210.027 287.456 210.027 289.739V300.282H207.256V290.392C207.256 288.608 206.847 287.233 206.029 286.267C205.212 285.301 204.039 284.818 202.51 284.818C201.002 284.818 199.739 285.381 198.719 286.506C197.7 287.631 197.19 289.022 197.19 290.679V300.282H194.403V276.377H197.19V285.073C197.881 284.191 198.746 283.507 199.786 283.018C200.827 282.53 201.974 282.286 203.226 282.286Z" fill="#AC7421"/>
<path d="M228.496 300.664C225.831 300.664 223.607 299.794 221.823 298.052C220.05 296.301 219.163 294.108 219.163 291.475C219.163 289.734 219.567 288.162 220.374 286.761C221.181 285.359 222.296 284.266 223.718 283.48C225.152 282.684 226.744 282.286 228.496 282.286C230.248 282.286 231.835 282.684 233.258 283.48C234.691 284.266 235.812 285.365 236.619 286.777C237.436 288.178 237.845 289.744 237.845 291.475C237.845 293.206 237.436 294.777 236.619 296.189C235.812 297.591 234.691 298.69 233.258 299.486C231.835 300.272 230.248 300.664 228.496 300.664ZM223.83 296.157C225.051 297.378 226.606 297.989 228.496 297.989C230.386 297.989 231.942 297.378 233.163 296.157C234.394 294.926 235.01 293.365 235.01 291.475C235.01 289.585 234.394 288.03 233.163 286.809C231.942 285.577 230.386 284.961 228.496 284.961C226.606 284.961 225.051 285.577 223.83 286.809C222.609 288.03 221.998 289.585 221.998 291.475C221.998 293.365 222.609 294.926 223.83 296.157Z" fill="#AC7421"/>
<path d="M247.268 300.282V276.377H250.055V300.282H247.268Z" fill="#AC7421"/>
<path d="M268.779 300.664C266.114 300.664 263.89 299.794 262.106 298.052C260.333 296.301 259.447 294.108 259.447 291.475C259.447 289.734 259.85 288.162 260.657 286.761C261.464 285.359 262.579 284.266 264.001 283.48C265.435 282.684 267.027 282.286 268.779 282.286C270.531 282.286 272.118 282.684 273.541 283.48C274.975 284.266 276.095 285.365 276.902 286.777C277.719 288.178 278.128 289.744 278.128 291.475C278.128 293.206 277.719 294.777 276.902 296.189C276.095 297.591 274.975 298.69 273.541 299.486C272.118 300.272 270.531 300.664 268.779 300.664ZM264.113 296.157C265.334 297.378 266.889 297.989 268.779 297.989C270.669 297.989 272.225 297.378 273.446 296.157C274.677 294.926 275.293 293.365 275.293 291.475C275.293 289.585 274.677 288.03 273.446 286.809C272.225 285.577 270.669 284.961 268.779 284.961C266.889 284.961 265.334 285.577 264.113 286.809C262.892 288.03 262.281 289.585 262.281 291.475C262.281 293.365 262.892 294.926 264.113 296.157Z" fill="#AC7421"/>
<path d="M302.108 282.668H303.955V297.814C303.955 300.659 303.185 302.894 301.646 304.519C300.106 306.143 297.999 306.955 295.323 306.955C293.168 306.955 291.357 306.424 289.892 305.363C288.427 304.311 287.456 302.846 286.978 300.967H289.749C290.131 302.05 290.827 302.894 291.835 303.499C292.855 304.115 294.017 304.423 295.323 304.423C297.107 304.423 298.54 303.866 299.623 302.751C300.706 301.636 301.248 300.112 301.248 298.18V297.097C300.451 297.925 299.501 298.573 298.397 299.04C297.293 299.496 296.103 299.725 294.829 299.725C293.226 299.725 291.761 299.342 290.434 298.578C289.107 297.814 288.061 296.768 287.296 295.441C286.542 294.103 286.166 292.627 286.166 291.013C286.166 289.399 286.542 287.923 287.296 286.586C288.061 285.248 289.107 284.197 290.434 283.432C291.761 282.668 293.226 282.286 294.829 282.286C296.22 282.286 297.505 282.562 298.684 283.114C299.873 283.666 300.871 284.43 301.678 285.407L302.108 282.668ZM290.736 295.345C291.904 296.492 293.369 297.065 295.132 297.065C296.894 297.065 298.349 296.497 299.496 295.361C300.642 294.214 301.216 292.765 301.216 291.013C301.216 289.261 300.642 287.812 299.496 286.665C298.349 285.519 296.894 284.945 295.132 284.945C293.369 284.945 291.904 285.524 290.736 286.681C289.579 287.828 289 289.272 289 291.013C289 292.744 289.579 294.188 290.736 295.345Z" fill="#AC7421"/>
<path d="M314.636 279.626V276.441H317.646V279.626H314.636ZM314.748 300.282V282.668H317.535V300.282H314.748Z" fill="#AC7421"/>
<path d="M333.886 300.664C331.805 300.664 330.133 300.144 328.869 299.104C327.606 298.063 326.937 296.656 326.863 294.883H329.57C329.644 295.902 330.08 296.693 330.876 297.256C331.683 297.819 332.718 298.1 333.982 298.1C335.203 298.1 336.195 297.856 336.96 297.368C337.735 296.879 338.122 296.21 338.122 295.361C338.122 295.032 338.069 294.735 337.963 294.469C337.857 294.204 337.687 293.981 337.454 293.8C337.22 293.609 336.986 293.45 336.753 293.322C336.519 293.184 336.195 293.062 335.781 292.956C335.378 292.85 335.027 292.77 334.73 292.717C334.443 292.654 334.051 292.579 333.552 292.494C333.159 292.431 332.851 292.377 332.628 292.335C332.416 292.293 332.118 292.229 331.736 292.144C331.364 292.059 331.067 291.979 330.844 291.905C330.621 291.831 330.345 291.735 330.016 291.618C329.687 291.502 329.421 291.374 329.22 291.236C329.029 291.098 328.811 290.939 328.567 290.758C328.323 290.567 328.126 290.36 327.977 290.137C327.839 289.914 327.701 289.67 327.563 289.405C327.425 289.129 327.325 288.821 327.261 288.481C327.208 288.141 327.181 287.775 327.181 287.382C327.181 285.864 327.792 284.637 329.013 283.703C330.234 282.758 331.837 282.286 333.822 282.286C335.808 282.286 337.395 282.779 338.584 283.767C339.784 284.744 340.41 286.065 340.464 287.732H337.836C337.783 286.777 337.4 286.044 336.689 285.535C335.978 285.014 335.001 284.754 333.759 284.754C332.57 284.754 331.625 284.988 330.924 285.455C330.223 285.911 329.873 286.522 329.873 287.286C329.873 287.584 329.92 287.854 330.016 288.099C330.112 288.332 330.271 288.534 330.494 288.704C330.717 288.874 330.94 289.017 331.163 289.134C331.386 289.251 331.694 289.357 332.086 289.452C332.479 289.548 332.814 289.622 333.09 289.675C333.366 289.728 333.753 289.792 334.252 289.866C335.994 290.153 337.241 290.456 337.995 290.774C339.736 291.507 340.681 292.792 340.83 294.628C340.851 294.83 340.862 295.032 340.862 295.234C340.862 296.879 340.225 298.196 338.951 299.183C337.677 300.171 335.988 300.664 333.886 300.664Z" fill="#AC7421"/>
<path d="M357.404 297.718H359.315V300.282H357.038C355.137 300.282 353.64 299.735 352.546 298.642C351.463 297.538 350.922 296.03 350.922 294.119V285.168H347.816V284.674L353.263 278.941H353.693V282.668H359.22V285.168H353.693V294.039C353.693 295.228 354.012 296.141 354.649 296.778C355.286 297.405 356.204 297.718 357.404 297.718Z" fill="#AC7421"/>
</svg>
