<svg width="646" height="162" viewBox="0 0 646 162" fill="none" xmlns="http://www.w3.org/2000/svg">
<path fill-rule="evenodd" clip-rule="evenodd" d="M90.2554 25.0548C90.2554 10.2833 99.3348 4.72244 109.892 5.25095C120.449 5.77945 127.632 13.8383 126.972 25.0548C126.809 27.8287 128.463 27.2118 131.173 26.2016C134.372 25.0088 139.041 23.2679 143.924 25.9131C152.943 30.7988 154.188 42.3043 151.107 47.7109C149.983 49.6828 151.321 49.9465 153.53 50.3817C157.378 51.1398 163.866 52.4182 164.584 64.1501C165.205 74.2901 159.547 78.5349 156.882 80.5338C156.675 80.6888 156.487 80.8304 156.32 80.9601C163.585 86.1562 168.075 93.8914 163.585 104.282C160.462 111.51 154.807 112.879 151.482 113.683C150.826 113.842 150.26 113.979 149.823 114.135C152.562 120.228 155.986 130.027 146.742 137.821C139.077 144.283 129.796 140.824 126.972 139.623C127.314 146.574 124.9 158.659 113.107 161.249C98.541 164.448 90.2562 150.179 90.2562 139.623C90.2562 138.853 90.2562 137.574 90.2562 135.857C90.4808 133.339 90.964 130.974 91.7623 128.573C94.0588 121.665 104.008 108.002 126.663 116.364C131.984 118.328 127.763 115.425 123.536 112.517L123.322 112.37C119.887 110.008 110.512 105.34 100.367 110.161C90.2212 114.981 107.456 96.029 115.124 90.5574C119.976 87.0957 127.632 84.9552 143.93 82.798C149.107 82.1128 124.208 80.6262 119.888 82.798C118.628 83.4311 119.004 80.9574 119.592 77.0789C120.351 72.0805 121.464 64.7489 119.888 58.7267C119.036 55.4715 118.909 57.3643 118.653 61.1773C118.321 66.1365 117.771 74.3439 115.124 78.6987C106.835 92.3399 94.2573 99.7784 91.7623 100.234C89.2673 100.689 90.5253 73.4848 94.1544 63.6923C97.7835 53.8997 106.279 37.251 113.083 33.1518C119.888 29.0526 98.4567 37.3694 93.0131 50.578C91.9446 53.1706 91.0339 54.3468 90.2555 54.5379C90.2554 43.6964 90.2554 33.4741 90.2554 25.0548ZM104.186 13.2712C96.0864 18.245 94.8634 29.5161 101.716 36.7547C109.815 31.7809 111.519 20.0511 104.186 13.2712ZM136.449 36.4531C130.282 42.0265 120.533 39.872 116.819 32.6271C123.466 27.1856 132.735 29.2082 136.449 36.4531ZM108.709 72.686C108.313 81.0073 99.9271 86.4463 92.1868 83.9975C93.0145 75.4259 100.968 70.2372 108.709 72.686ZM103.403 51.118C113.076 52.6845 118.324 63.2828 114.439 72.0783C104.531 69.9701 99.5182 59.9135 103.403 51.118ZM119.793 91.6423C129.343 85.9024 141.625 91.2637 144.653 101.763C134.503 107.205 122.821 102.142 119.793 91.6423ZM104.487 118.921C114.953 115.116 125.99 122.732 126.968 133.619C115.97 137.016 105.465 129.808 104.487 118.921ZM138.062 52.7977C143.18 62.767 137.049 74.7756 126.383 77.1519C121.602 66.599 127.396 55.1739 138.062 52.7977ZM112.214 39.8995C119.161 42.1303 121.853 50.5171 118.021 56.5591C110.96 53.9032 108.382 45.9415 112.214 39.8995ZM131.812 116.473C134.652 109.727 143.214 107.792 148.861 112.169C145.59 118.99 137.46 120.85 131.812 116.473ZM108.871 107.57C108.514 101.425 114.253 96.7704 120.13 97.9626C120.189 104.326 114.749 108.762 108.871 107.57ZM139.592 77.3018C140.795 71.2654 147.519 68.2192 152.905 70.865C151.36 77.0365 144.979 79.9476 139.592 77.3018ZM143.617 85.7907C150.101 82.4357 157.911 86.4549 159.456 93.4479C152.593 96.5828 145.163 92.7837 143.617 85.7907Z" fill="#B51733"/>
<path fill-rule="evenodd" clip-rule="evenodd" d="M37.1861 37.5262C43.3492 43.0523 53.0928 40.9161 56.8045 33.7326C50.1608 28.3373 40.8978 30.3427 37.1861 37.5262Z" fill="#B51733"/>
<path fill-rule="evenodd" clip-rule="evenodd" d="M64.9095 73.452C65.3052 81.7027 73.6855 87.0956 81.421 84.6675C80.5938 76.1686 72.645 71.0239 64.9095 73.452Z" fill="#B51733"/>
<path fill-rule="evenodd" clip-rule="evenodd" d="M70.2115 52.0668C60.5451 53.62 55.3005 64.1285 59.1832 72.8494C69.0848 70.7591 74.0941 60.7877 70.2115 52.0668Z" fill="#B51733"/>
<path fill-rule="evenodd" clip-rule="evenodd" d="M53.8325 92.2476C44.288 86.5563 32.0138 91.8722 28.9875 102.283C39.1309 107.679 50.8061 102.658 53.8325 92.2476Z" fill="#B51733"/>
<path fill-rule="evenodd" clip-rule="evenodd" d="M69.1282 119.295C58.6689 115.522 47.6385 123.073 46.6617 133.868C57.6522 137.237 68.1514 130.089 69.1282 119.295Z" fill="#B51733"/>
<path fill-rule="evenodd" clip-rule="evenodd" d="M35.574 53.7322C30.4601 63.617 36.5865 75.5238 47.246 77.8799C52.0245 67.4165 46.2334 56.0883 35.574 53.7322Z" fill="#B51733"/>
<path fill-rule="evenodd" clip-rule="evenodd" d="M61.4065 40.9433C54.4635 43.1553 51.7733 51.4709 55.603 57.4617C62.6594 54.8283 65.2362 46.9341 61.4065 40.9433Z" fill="#B51733"/>
<path fill-rule="evenodd" clip-rule="evenodd" d="M41.8203 116.867C38.9824 110.179 30.4259 108.26 24.7822 112.6C28.0517 119.364 36.1765 121.208 41.8203 116.867Z" fill="#B51733"/>
<path fill-rule="evenodd" clip-rule="evenodd" d="M34.0455 78.0286C32.8435 72.0433 26.1238 69.023 20.7406 71.6464C22.2852 77.7656 28.6622 80.652 34.0455 78.0286Z" fill="#B51733"/>
<path fill-rule="evenodd" clip-rule="evenodd" d="M30.0226 86.4455C23.5431 83.119 15.7381 87.1041 14.1937 94.0379C21.0525 97.1462 28.4782 93.3792 30.0226 86.4455Z" fill="#B51733"/>
<path fill-rule="evenodd" clip-rule="evenodd" d="M69.4296 14.5408C77.5238 19.4724 78.746 30.648 71.8979 37.8252C63.8037 32.8936 62.1011 21.2632 69.4296 14.5408Z" fill="#B51733"/>
<path d="M81.8452 128.865C83.9459 136.395 85.3233 156.373 67.0005 161.706C67.0005 161.706 86.0816 160.668 86.0816 136.634C86.0816 112.6 86.0816 92.2476 86.0816 92.2476C86.0816 63.567 80.5236 55.263 77.94 50.5507C73.7497 42.9078 55.3496 28.2822 60.5378 34.2528C64.9095 39.2839 75.8278 54.8249 79.4546 64.5344C83.0814 74.244 84.3386 101.218 81.8452 100.766C79.3518 100.315 66.7815 92.9392 58.4977 79.4137C53.8199 71.7759 55.6962 52.1857 53.7375 59.6109C50.9402 70.2154 56.6184 84.9148 53.7375 83.4782C49.4195 81.3248 24.5363 82.7988 29.71 83.4782C45.9978 85.6171 53.649 87.7395 58.4977 91.1718C66.1618 96.597 83.3854 115.388 73.2461 110.609C63.1069 105.83 53.7376 110.457 50.3056 112.8L50.0918 112.946C45.867 115.829 41.6491 118.707 46.9662 116.76C69.6067 108.468 80.4331 123.803 81.8452 128.865Z" fill="#B51733"/>
<path fill-rule="evenodd" clip-rule="evenodd" d="M22.0645 41.7934C28.3823 38.1585 36.2135 41.2045 38.342 47.8598C32.0243 51.4947 24.1931 48.4487 22.0645 41.7934Z" fill="#B51733"/>
<path fill-rule="evenodd" clip-rule="evenodd" d="M33.7435 11.7269C42.2304 12.6352 47.5093 20.8901 44.8998 28.6351C36.4129 27.7268 31.134 19.4719 33.7435 11.7269Z" fill="#B51733"/>
<path fill-rule="evenodd" clip-rule="evenodd" d="M76.3383 0.0487042C77.2878 7.57631 71.1578 13.8381 63.8531 13.1719C62.9036 5.64425 69.0336 -0.61756 76.3383 0.0487042Z" fill="#B51733"/>
<path fill-rule="evenodd" clip-rule="evenodd" d="M55.1245 10.5355C62.8492 14.4906 64.8229 24.253 59.4935 30.6567C51.7688 26.7017 49.7951 16.9393 55.1245 10.5355Z" fill="#B51733"/>
<path fill-rule="evenodd" clip-rule="evenodd" d="M25.8635 135.056C26.9586 126.125 35.8281 120.686 44.0357 123.553C42.9405 132.484 34.0711 137.923 25.8635 135.056Z" fill="#B51733"/>
<path fill-rule="evenodd" clip-rule="evenodd" d="M40.8454 149.317C36.8818 143.945 38.8935 136.534 44.784 133.938C48.7477 139.309 46.7359 146.721 40.8454 149.317Z" fill="#B51733"/>
<path fill-rule="evenodd" clip-rule="evenodd" d="M0.137262 84.1888C6.82585 83.8403 11.9494 89.5809 10.898 95.9045C4.20941 96.2531 -0.914171 90.5124 0.137262 84.1888Z" fill="#B51733"/>
<path fill-rule="evenodd" clip-rule="evenodd" d="M53.2317 97.2536C58.7932 96.6698 63.3194 101.232 62.7228 106.55C57.1614 107.134 52.6351 102.572 53.2317 97.2536Z" fill="#B51733"/>
<path fill-rule="evenodd" clip-rule="evenodd" d="M6.33369 103.126C12.2673 97.963 21.2057 99.5662 24.857 106.178C18.9234 111.341 9.98504 109.738 6.33369 103.126Z" fill="#B51733"/>
<path fill-rule="evenodd" clip-rule="evenodd" d="M4.54836 70.1568C12.1884 68.2239 19.4298 73.6777 19.6783 81.2176C12.0383 83.1506 4.79684 77.6968 4.54836 70.1568Z" fill="#B51733"/>
<path fill-rule="evenodd" clip-rule="evenodd" d="M5.74376 119.399C12.8574 112.598 24.1262 114.081 29.0806 122.133C21.967 128.935 10.6982 127.452 5.74376 119.399Z" fill="#B51733"/>
<path fill-rule="evenodd" clip-rule="evenodd" d="M7.11385 50.7243C17.1254 46.2924 28.3331 52.0742 30.4519 62.3465C20.4403 66.7783 9.23262 60.9966 7.11385 50.7243Z" fill="#B51733"/>
<path fill-rule="evenodd" clip-rule="evenodd" d="M17.1122 20.8728C26.2645 20.0441 33.5937 27.6463 32.4872 36.3718C23.3349 37.2006 16.0057 29.5983 17.1122 20.8728Z" fill="#B51733"/>
<path fill-rule="evenodd" clip-rule="evenodd" d="M411.882 24.8047C413.987 34.2113 407.054 42.8736 397.807 42.9149C395.703 33.5083 402.635 24.846 411.882 24.8047Z" fill="#B51733"/>
<path fill-rule="evenodd" clip-rule="evenodd" d="M645.066 24.8049C647.17 34.2115 640.238 42.8738 630.991 42.9151C628.886 33.5085 635.819 24.8462 645.066 24.8049Z" fill="#B51733"/>
<path d="M226.688 35.3786H233.164V88.2349H227.608L197.582 46.9893V88.2349H191.106V35.3786H197.067L226.688 76.145V35.3786Z" fill="#1C1D1D"/>
<path d="M280.888 47.4685H286.002V88.2349H280.704L280.005 82.0425C278.091 84.2787 275.761 86.0233 273.013 87.2766C270.291 88.5052 267.298 89.1195 264.035 89.1195C260.086 89.1195 256.505 88.198 253.291 86.3551C250.078 84.5121 247.551 81.9688 245.711 78.7252C243.896 75.457 242.988 71.8325 242.988 67.8517C242.988 61.7576 244.987 56.6956 248.986 52.6657C253.009 48.6111 258.025 46.5839 264.035 46.5839C267.298 46.5839 270.315 47.2105 273.087 48.4637C275.859 49.7169 278.202 51.4739 280.115 53.7346L280.888 47.4685ZM253.806 78.6146C256.652 81.4896 260.221 82.9272 264.514 82.9272C268.807 82.9272 272.363 81.5019 275.184 78.6515C278.03 75.7764 279.453 72.1765 279.453 67.8517C279.453 63.5269 278.03 59.9392 275.184 57.0888C272.363 54.2137 268.807 52.7762 264.514 52.7762C260.221 52.7762 256.652 54.2137 253.806 57.0888C250.961 59.9638 249.538 63.5514 249.538 67.8517C249.538 72.1519 250.961 75.7396 253.806 78.6146Z" fill="#1C1D1D"/>
<path d="M315.77 82.3005H320.185V88.2349H314.924C310.533 88.2349 307.074 86.9694 304.547 84.4384C302.045 81.8828 300.794 78.3935 300.794 73.9703V53.2554H293.619V52.1128L306.203 38.8434H307.197V47.4685H319.965V53.2554H307.197V73.786C307.197 76.5382 307.933 78.6515 309.404 80.1258C310.876 81.5756 312.998 82.3005 315.77 82.3005Z" fill="#1C1D1D"/>
<path d="M362.942 47.4685H368.057V88.2349H362.758L362.059 82.0425C360.146 84.2787 357.815 86.0233 355.068 87.2766C352.345 88.5052 349.352 89.1195 346.09 89.1195C342.14 89.1195 338.559 88.198 335.345 86.3551C332.132 84.5121 329.605 81.9688 327.765 78.7252C325.95 75.457 325.042 71.8325 325.042 67.8517C325.042 61.7576 327.042 56.6956 331.04 52.6657C335.063 48.6111 340.08 46.5839 346.09 46.5839C349.352 46.5839 352.369 47.2105 355.141 48.4637C357.913 49.7169 360.256 51.4739 362.169 53.7346L362.942 47.4685ZM335.86 78.6146C338.706 81.4896 342.275 82.9272 346.568 82.9272C350.861 82.9272 354.418 81.5019 357.239 78.6515C360.084 75.7764 361.507 72.1765 361.507 67.8517C361.507 63.5269 360.084 59.9392 357.239 57.0888C354.418 54.2137 350.861 52.7762 346.568 52.7762C342.275 52.7762 338.706 54.2137 335.86 57.0888C333.015 59.9638 331.592 63.5514 331.592 67.8517C331.592 72.1519 333.015 75.7396 335.86 78.6146Z" fill="#1C1D1D"/>
<path d="M380.935 88.2349V32.9091H387.374V88.2349H380.935Z" fill="#1C1D1D"/>
<path d="M469.208 60.8116C471.636 61.8682 473.55 63.5514 474.948 65.8613C476.371 68.1711 477.082 70.7759 477.082 73.6755C477.082 77.7791 475.549 81.2316 472.483 84.0329C469.416 86.8342 465.626 88.2349 461.113 88.2349H439.992V35.3786H460.818C465.111 35.3786 468.656 36.6687 471.452 39.2489C474.273 41.829 475.684 45.0481 475.684 48.906C475.684 51.3141 475.095 53.6117 473.918 55.7987C472.74 57.9857 471.17 59.6566 469.208 60.8116ZM468.95 49.7906C468.95 47.5545 468.153 45.6747 466.558 44.1512C464.964 42.6276 463.002 41.8659 460.671 41.8659H446.542V57.7154H460.708C463.038 57.7154 464.988 56.9536 466.558 55.4301C468.153 53.882 468.95 52.0022 468.95 49.7906ZM461.039 81.6739C463.688 81.6739 465.884 80.8507 467.625 79.2044C469.367 77.5334 470.238 75.4447 470.238 72.9383C470.238 70.4564 469.355 68.38 467.589 66.7091C465.847 65.0381 463.664 64.2026 461.039 64.2026H446.542V81.6739H461.039Z" fill="#1C1D1D"/>
<path d="M522.488 47.4685H527.602V88.2349H522.304L521.605 82.0425C519.691 84.2787 517.361 86.0233 514.613 87.2766C511.891 88.5052 508.898 89.1195 505.635 89.1195C501.686 89.1195 498.105 88.198 494.891 86.3551C491.678 84.5121 489.151 81.9688 487.311 78.7252C485.496 75.457 484.588 71.8325 484.588 67.8517C484.588 61.7576 486.587 56.6956 490.586 52.6657C494.609 48.6111 499.625 46.5839 505.635 46.5839C508.898 46.5839 511.915 47.2105 514.687 48.4637C517.459 49.7169 519.802 51.4739 521.715 53.7346L522.488 47.4685ZM495.406 78.6146C498.252 81.4896 501.821 82.9272 506.114 82.9272C510.407 82.9272 513.963 81.5019 516.784 78.6515C519.63 75.7764 521.053 72.1765 521.053 67.8517C521.053 63.5269 519.63 59.9392 516.784 57.0888C513.963 54.2137 510.407 52.7762 506.114 52.7762C501.821 52.7762 498.252 54.2137 495.406 57.0888C492.561 59.9638 491.138 63.5514 491.138 67.8517C491.138 72.1519 492.561 75.7396 495.406 78.6146Z" fill="#1C1D1D"/>
<path d="M567.342 88.2349L553.396 69.9527H547.582V88.2349H541.18V32.9091H547.582V64.0183H553.506L566.054 47.4685H573.854L559.026 67.0039L575.363 88.2349H567.342Z" fill="#1C1D1D"/>
<path d="M615.654 47.4685H620.769V88.2349H615.47L614.771 82.0425C612.858 84.2787 610.527 86.0233 607.78 87.2766C605.057 88.5052 602.064 89.1195 598.802 89.1195C594.852 89.1195 591.271 88.198 588.058 86.3551C584.844 84.5121 582.317 81.9688 580.478 78.7252C578.662 75.457 577.755 71.8325 577.755 67.8517C577.755 61.7576 579.754 56.6956 583.752 52.6657C587.775 48.6111 592.792 46.5839 598.802 46.5839C602.064 46.5839 605.082 47.2105 607.854 48.4637C610.626 49.7169 612.968 51.4739 614.882 53.7346L615.654 47.4685ZM588.573 78.6146C591.418 81.4896 594.987 82.9272 599.28 82.9272C603.573 82.9272 607.13 81.5019 609.951 78.6515C612.796 75.7764 614.219 72.1765 614.219 67.8517C614.219 63.5269 612.796 59.9392 609.951 57.0888C607.13 54.2137 603.573 52.7762 599.28 52.7762C594.987 52.7762 591.418 54.2137 588.573 57.0888C585.727 59.9638 584.304 63.5514 584.304 67.8517C584.304 72.1519 585.727 75.7396 588.573 78.6146Z" fill="#1C1D1D"/>
<path d="M400.299 88.2887V47.5223H406.738V88.2887H400.299Z" fill="#1C1D1D"/>
<path d="M633.539 88.2889V47.5225H639.978V88.2889H633.539Z" fill="#1C1D1D"/>
<path d="M203.258 113.386C204.989 113.386 206.544 113.784 207.925 114.581C209.305 115.377 210.377 116.476 211.142 117.877C211.917 119.268 212.304 120.834 212.304 122.576C212.304 125.209 211.45 127.401 209.74 129.153C208.031 130.894 205.87 131.765 203.258 131.765C201.963 131.765 200.747 131.526 199.611 131.048C198.486 130.57 197.509 129.896 196.681 129.026V137.674H193.894V113.768H195.805L196.362 116.46C197.19 115.494 198.199 114.74 199.388 114.198C200.577 113.657 201.867 113.386 203.258 113.386ZM198.401 127.226C199.643 128.468 201.193 129.089 203.051 129.089C204.909 129.089 206.449 128.474 207.67 127.242C208.891 126 209.501 124.444 209.501 122.576C209.501 120.707 208.891 119.157 207.67 117.925C206.449 116.683 204.909 116.062 203.051 116.062C201.193 116.062 199.643 116.683 198.401 117.925C197.169 119.167 196.553 120.717 196.553 122.576C196.553 124.434 197.169 125.984 198.401 127.226Z" fill="#AC7421"/>
<path d="M227.302 131.765C225.221 131.765 223.548 131.245 222.285 130.204C221.021 129.164 220.352 127.757 220.278 125.984H222.986C223.06 127.003 223.495 127.794 224.292 128.357C225.098 128.919 226.134 129.201 227.397 129.201C228.618 129.201 229.611 128.957 230.375 128.468C231.15 127.98 231.538 127.311 231.538 126.462C231.538 126.132 231.485 125.835 231.379 125.57C231.272 125.304 231.103 125.081 230.869 124.901C230.635 124.71 230.402 124.55 230.168 124.423C229.935 124.285 229.611 124.163 229.197 124.057C228.793 123.951 228.443 123.871 228.146 123.818C227.859 123.754 227.466 123.68 226.967 123.595C226.574 123.531 226.266 123.478 226.043 123.436C225.831 123.393 225.534 123.329 225.152 123.244C224.78 123.16 224.483 123.08 224.26 123.006C224.037 122.931 223.761 122.836 223.432 122.719C223.102 122.602 222.837 122.475 222.635 122.337C222.444 122.199 222.226 122.039 221.982 121.859C221.738 121.668 221.542 121.461 221.393 121.238C221.255 121.015 221.117 120.771 220.979 120.505C220.841 120.229 220.74 119.921 220.676 119.581C220.623 119.242 220.597 118.875 220.597 118.483C220.597 116.964 221.207 115.738 222.428 114.804C223.649 113.859 225.252 113.386 227.238 113.386C229.223 113.386 230.811 113.88 232 114.867C233.2 115.844 233.826 117.166 233.879 118.833H231.251C231.198 117.877 230.816 117.145 230.105 116.635C229.393 116.115 228.416 115.855 227.174 115.855C225.985 115.855 225.04 116.088 224.339 116.555C223.639 117.012 223.288 117.623 223.288 118.387C223.288 118.684 223.336 118.955 223.432 119.199C223.527 119.433 223.686 119.635 223.909 119.804C224.132 119.974 224.355 120.118 224.578 120.234C224.801 120.351 225.109 120.457 225.502 120.553C225.895 120.648 226.229 120.723 226.505 120.776C226.781 120.829 227.169 120.893 227.668 120.967C229.409 121.254 230.657 121.556 231.411 121.875C233.152 122.607 234.097 123.892 234.245 125.729C234.267 125.931 234.277 126.132 234.277 126.334C234.277 127.98 233.64 129.296 232.366 130.284C231.092 131.271 229.404 131.765 227.302 131.765Z" fill="#AC7421"/>
<path d="M256.043 113.768H258.99L250.596 132.115C249.641 134.207 248.664 135.656 247.666 136.463C246.679 137.27 245.357 137.674 243.7 137.674H242.044V135.157H243.462C244.629 135.157 245.511 134.918 246.105 134.441C246.7 133.963 247.353 132.981 248.064 131.494L248.701 130.188L240.866 113.768H243.892L250.151 127.099L256.043 113.768Z" fill="#AC7421"/>
<path d="M274.624 131.765C272.915 131.765 271.359 131.367 269.958 130.57C268.556 129.774 267.457 128.675 266.661 127.274C265.865 125.862 265.466 124.296 265.466 122.576C265.466 120.845 265.865 119.279 266.661 117.877C267.457 116.476 268.556 115.377 269.958 114.581C271.359 113.784 272.915 113.386 274.624 113.386C276.716 113.386 278.526 113.959 280.055 115.106C281.594 116.253 282.635 117.787 283.176 119.709H280.437C279.917 118.573 279.142 117.681 278.112 117.033C277.082 116.386 275.919 116.062 274.624 116.062C272.819 116.062 271.311 116.688 270.101 117.941C268.901 119.183 268.301 120.728 268.301 122.576C268.301 124.412 268.906 125.957 270.117 127.21C271.327 128.463 272.83 129.089 274.624 129.089C275.919 129.089 277.071 128.76 278.08 128.102C279.089 127.444 279.864 126.525 280.405 125.347H283.208C282.667 127.29 281.616 128.845 280.055 130.013C278.505 131.181 276.694 131.765 274.624 131.765Z" fill="#AC7421"/>
<path d="M301.12 113.386C303.212 113.386 304.868 114.06 306.089 115.409C307.31 116.747 307.921 118.557 307.921 120.84V131.383H305.149V121.493C305.149 119.709 304.741 118.334 303.923 117.368C303.105 116.402 301.932 115.918 300.403 115.918C298.896 115.918 297.632 116.481 296.613 117.607C295.594 118.732 295.084 120.123 295.084 121.779V131.383H292.297V107.478H295.084V116.173C295.774 115.292 296.639 114.607 297.68 114.119C298.72 113.63 299.867 113.386 301.12 113.386Z" fill="#AC7421"/>
<path d="M326.39 131.765C323.725 131.765 321.5 130.894 319.717 129.153C317.944 127.401 317.057 125.209 317.057 122.576C317.057 120.834 317.46 119.263 318.267 117.861C319.074 116.46 320.189 115.366 321.612 114.581C323.045 113.784 324.638 113.386 326.39 113.386C328.142 113.386 329.729 113.784 331.152 114.581C332.585 115.366 333.705 116.465 334.512 117.877C335.33 119.279 335.738 120.845 335.738 122.576C335.738 124.306 335.33 125.878 334.512 127.29C333.705 128.691 332.585 129.79 331.152 130.586C329.729 131.372 328.142 131.765 326.39 131.765ZM321.723 127.258C322.944 128.479 324.5 129.089 326.39 129.089C328.28 129.089 329.835 128.479 331.056 127.258C332.288 126.026 332.904 124.465 332.904 122.576C332.904 120.686 332.288 119.13 331.056 117.909C329.835 116.678 328.28 116.062 326.39 116.062C324.5 116.062 322.944 116.678 321.723 117.909C320.502 119.13 319.892 120.686 319.892 122.576C319.892 124.465 320.502 126.026 321.723 127.258Z" fill="#AC7421"/>
<path d="M345.162 131.383V107.478H347.949V131.383H345.162Z" fill="#AC7421"/>
<path d="M366.673 131.765C364.008 131.765 361.783 130.894 360 129.153C358.227 127.401 357.34 125.209 357.34 122.576C357.34 120.834 357.744 119.263 358.55 117.861C359.357 116.46 360.472 115.366 361.895 114.581C363.328 113.784 364.921 113.386 366.673 113.386C368.425 113.386 370.012 113.784 371.435 114.581C372.868 115.366 373.988 116.465 374.795 117.877C375.613 119.279 376.021 120.845 376.021 122.576C376.021 124.306 375.613 125.878 374.795 127.29C373.988 128.691 372.868 129.79 371.435 130.586C370.012 131.372 368.425 131.765 366.673 131.765ZM362.006 127.258C363.227 128.479 364.783 129.089 366.673 129.089C368.563 129.089 370.118 128.479 371.339 127.258C372.571 126.026 373.187 124.465 373.187 122.576C373.187 120.686 372.571 119.13 371.339 117.909C370.118 116.678 368.563 116.062 366.673 116.062C364.783 116.062 363.227 116.678 362.006 117.909C360.785 119.13 360.175 120.686 360.175 122.576C360.175 124.465 360.785 126.026 362.006 127.258Z" fill="#AC7421"/>
<path d="M400.001 113.768H401.849V128.914C401.849 131.76 401.079 133.995 399.539 135.619C398 137.244 395.892 138.056 393.217 138.056C391.061 138.056 389.251 137.525 387.786 136.463C386.321 135.412 385.349 133.947 384.871 132.068H387.642C388.025 133.151 388.72 133.995 389.729 134.6C390.748 135.216 391.911 135.524 393.217 135.524C395 135.524 396.434 134.966 397.517 133.851C398.6 132.736 399.141 131.213 399.141 129.28V128.197C398.345 129.026 397.395 129.673 396.29 130.14C395.186 130.597 393.997 130.825 392.723 130.825C391.12 130.825 389.654 130.443 388.327 129.679C387 128.914 385.954 127.868 385.19 126.541C384.436 125.203 384.059 123.728 384.059 122.114C384.059 120.5 384.436 119.024 385.19 117.686C385.954 116.348 387 115.297 388.327 114.533C389.654 113.768 391.12 113.386 392.723 113.386C394.114 113.386 395.399 113.662 396.577 114.214C397.766 114.766 398.764 115.531 399.571 116.508L400.001 113.768ZM388.63 126.446C389.798 127.592 391.263 128.166 393.026 128.166C394.788 128.166 396.243 127.598 397.389 126.462C398.536 125.315 399.109 123.866 399.109 122.114C399.109 120.362 398.536 118.913 397.389 117.766C396.243 116.619 394.788 116.046 393.026 116.046C391.263 116.046 389.798 116.624 388.63 117.782C387.473 118.928 386.894 120.372 386.894 122.114C386.894 123.844 387.473 125.288 388.63 126.446Z" fill="#AC7421"/>
<path d="M412.53 110.726V107.541H415.54V110.726H412.53ZM412.641 131.383V113.768H415.429V131.383H412.641Z" fill="#AC7421"/>
<path d="M431.78 131.765C429.699 131.765 428.026 131.245 426.763 130.204C425.499 129.164 424.831 127.757 424.756 125.984H427.464C427.538 127.003 427.973 127.794 428.77 128.357C429.577 128.919 430.612 129.201 431.875 129.201C433.096 129.201 434.089 128.957 434.853 128.468C435.628 127.98 436.016 127.311 436.016 126.462C436.016 126.132 435.963 125.835 435.857 125.57C435.751 125.304 435.581 125.081 435.347 124.901C435.114 124.71 434.88 124.55 434.646 124.423C434.413 124.285 434.089 124.163 433.675 124.057C433.271 123.951 432.921 123.871 432.624 123.818C432.337 123.754 431.944 123.68 431.445 123.595C431.052 123.531 430.744 123.478 430.521 123.436C430.309 123.393 430.012 123.329 429.63 123.244C429.258 123.16 428.961 123.08 428.738 123.006C428.515 122.931 428.239 122.836 427.91 122.719C427.58 122.602 427.315 122.475 427.113 122.337C426.922 122.199 426.704 122.039 426.46 121.859C426.216 121.668 426.02 121.461 425.871 121.238C425.733 121.015 425.595 120.771 425.457 120.505C425.319 120.229 425.218 119.921 425.154 119.581C425.101 119.242 425.075 118.875 425.075 118.483C425.075 116.964 425.685 115.738 426.906 114.804C428.127 113.859 429.73 113.386 431.716 113.386C433.701 113.386 435.289 113.88 436.478 114.867C437.678 115.844 438.304 117.166 438.357 118.833H435.729C435.676 117.877 435.294 117.145 434.583 116.635C433.871 116.115 432.894 115.855 431.652 115.855C430.463 115.855 429.518 116.088 428.817 116.555C428.117 117.012 427.766 117.623 427.766 118.387C427.766 118.684 427.814 118.955 427.91 119.199C428.005 119.433 428.164 119.635 428.387 119.804C428.61 119.974 428.833 120.118 429.056 120.234C429.279 120.351 429.587 120.457 429.98 120.553C430.373 120.648 430.707 120.723 430.983 120.776C431.259 120.829 431.647 120.893 432.146 120.967C433.887 121.254 435.135 121.556 435.889 121.875C437.63 122.607 438.575 123.892 438.723 125.729C438.745 125.931 438.755 126.132 438.755 126.334C438.755 127.98 438.118 129.296 436.844 130.284C435.57 131.271 433.882 131.765 431.78 131.765Z" fill="#AC7421"/>
<path d="M455.298 128.819H457.209V131.383H454.931C453.031 131.383 451.534 130.836 450.44 129.742C449.357 128.638 448.816 127.13 448.816 125.219V116.269H445.71V115.775L451.157 110.042H451.587V113.768H457.113V116.269H451.587V125.14C451.587 126.329 451.905 127.242 452.542 127.879C453.179 128.505 454.098 128.819 455.298 128.819Z" fill="#AC7421"/>
</svg>
